<?xml version="1.0" encoding="utf-8"?><svg viewBox="0 0 879 326" xmlns="http://www.w3.org/2000/svg" xmlns:xlink="http://www.w3.org/1999/xlink"><style>:root>svg{display:none}:root>svg:target{display:block}</style><svg viewBox="0 0 432 98" id="logo" xmlns="http://www.w3.org/2000/svg"><path d="M5.706 61.541v-2.9l5.666-5.841h8.56v8.741H5.706zm0 14.459v-8.659h14.226V76h5.665V47H8.52L0 55.741V76h5.706zm38.428 0V52.8h9.904V47H28.441v5.8h9.986V76h5.707zm18.055 0V58.6l5.666-5.8h8.56V76h5.665V47H65l-8.518 8.7V76h5.706zm29.256-14.459v-2.9l5.666-5.841h8.559v8.741H91.445zm0 14.459v-8.659h14.225V76h5.666V47H94.258l-8.52 8.741V76h5.707zm29.664 0V64.441h14.225V76H141V47h-5.666v11.641h-14.225V47h-5.706v29h5.706zm74.563 0V52.8h18.395V47H190v29h5.672zm24.879-14.459v-2.9l5.632-5.841h8.508v8.741h-14.14zm0 14.459v-8.659h14.14V76h5.632V47h-16.977l-8.468 8.741V76h5.673zm45.653 0L269 73.141v-8.7l-2.796-2.9 2.796-2.9v-8.7L266.204 47h-19.853l-2.796 2.941V55.7h5.673v-2.9h14.14v5.841h-8.508v5.8h8.508V70.2h-14.14v-2.859h-5.673v5.8L246.351 76h19.853zM8.55 86.674c0 .689-.23 1.258-.687 1.707-.458.45-1.077.735-1.86.857v.044c.92.098 1.624.369 2.114.813.494.445.741 1.023.741 1.737 0 .986-.375 1.765-1.125 2.337-.746.57-1.78.857-3.102.857-1.474 0-2.656-.193-3.549-.58v-1.904c.43.22.934.393 1.51.52a7.936 7.936 0 001.627.183c1.688 0 2.532-.525 2.532-1.575 0-.473-.272-.837-.816-1.091-.54-.254-1.341-.381-2.403-.381h-.94v-1.773h.844c1.062 0 1.835-.108 2.32-.322.485-.215.728-.572.728-1.07 0-.366-.154-.657-.46-.872-.302-.22-.757-.33-1.366-.33-.943 0-1.853.291-2.731.872L1 85.187a6.035 6.035 0 011.819-.887 7.472 7.472 0 012.134-.285c1.094 0 1.965.244 2.615.732.654.489.981 1.13.981 1.927zm8.324 8.206l-.727-2.55h-3.658l-.728 2.55H9.47l3.541-10.755h2.601l3.555 10.754h-2.292zm-1.235-4.455a2277.07 2277.07 0 01-1.14-3.92 12.951 12.951 0 01-.178-.718c-.15.626-.583 2.171-1.297 4.638h2.615zm12.738 4.455h-2.121v-8.821h-3.692v8.82h-2.128V84.17h7.94v10.71zm4.66-5.671h.7c.654 0 1.143-.137 1.468-.41.325-.279.488-.682.488-1.21 0-.532-.138-.925-.412-1.179-.27-.254-.696-.38-1.277-.38h-.967v3.179zm4.804-1.7c0 1.153-.339 2.034-1.016 2.645-.673.61-1.631.916-2.876.916h-.912v3.81h-2.128V84.167h3.205c1.217 0 2.141.281 2.773.843.636.557.954 1.39.954 2.498zm8.036 7.371l-.727-2.55h-3.658l-.728 2.55h-2.292l3.541-10.755h2.602l3.555 10.754h-2.293zm-1.235-4.455c-.673-2.31-1.052-3.617-1.14-3.92a13.025 13.025 0 01-.178-.718c-.15.626-.583 2.171-1.297 4.638h2.615zm4.798-6.257h3.122c1.423 0 2.455.218 3.095.652.645.43.968 1.117.968 2.06 0 .639-.142 1.164-.426 1.574-.279.41-.652.657-1.118.74v.073c.636.152 1.093.435 1.372.85.284.415.426.967.426 1.656 0 .977-.332 1.739-.995 2.286-.66.547-1.556.82-2.69.82h-3.755V84.17zm2.127 4.242h1.235c.577 0 .993-.095 1.25-.285.26-.19.39-.506.39-.945 0-.41-.142-.704-.425-.88-.28-.18-.723-.27-1.332-.27h-1.118v2.38zm0 1.803v2.79h1.386c.586 0 1.018-.119 1.297-.358.28-.24.419-.606.419-1.1 0-.888-.595-1.332-1.784-1.332h-1.318zm15.497 4.667h-2.416l-3.638-5.43v5.43h-2.127V84.167h2.127v5.187l3.596-5.187h2.265l-3.658 5.143 3.85 5.568zm7.405 0l-.728-2.55h-3.658l-.727 2.55h-2.292l3.54-10.755h2.602l3.555 10.754h-2.292zm-1.236-4.455a2277.07 2277.07 0 01-1.139-3.92 12.951 12.951 0 01-.178-.718c-.151.626-.584 2.171-1.297 4.638h2.614zm14.79-6.257v1.876H83.81v8.835h-2.127V84.17h6.341zm7.694 10.712l-.728-2.55h-3.658l-.727 2.55H88.31l3.542-10.755h2.6l3.556 10.754h-2.292zm-1.236-4.455l-1.139-3.92a13.025 13.025 0 01-.178-.718c-.151.626-.584 2.171-1.297 4.638h2.614zm11.729-3.751c0 .689-.229 1.258-.686 1.707-.458.45-1.078.735-1.86.857v.044c.92.098 1.624.369 2.114.813.494.445.741 1.023.741 1.737 0 .986-.375 1.765-1.126 2.337-.745.57-1.779.857-3.102.857-1.473 0-2.656-.193-3.548-.58v-1.904c.43.22.934.393 1.51.52a7.935 7.935 0 001.627.183c1.688 0 2.532-.525 2.532-1.575 0-.473-.272-.837-.817-1.091-.54-.254-1.34-.381-2.402-.381h-.94v-1.773h.844c1.062 0 1.835-.108 2.32-.322.485-.215.727-.572.727-1.07 0-.366-.153-.657-.459-.872-.302-.22-.758-.33-1.366-.33-.943 0-1.853.291-2.732.872l-.926-1.516a6.032 6.032 0 011.819-.887 7.468 7.468 0 012.134-.285c1.093 0 1.965.244 2.615.732.654.489.981 1.13.981 1.927zm8.524-2.506v1.876h-4.214v8.835h-2.127V84.17h6.341zm10.658 5.342c0 1.772-.411 3.135-1.235 4.087-.824.953-2.004 1.429-3.541 1.429-1.538 0-2.718-.477-3.542-1.429-.823-.952-1.235-2.32-1.235-4.102 0-1.783.412-3.143 1.235-4.081.828-.943 2.014-1.414 3.555-1.414 1.542 0 2.72.474 3.535 1.421.819.948 1.228 2.31 1.228 4.088zm-7.323 0c0 1.196.213 2.097.639 2.703.425.605 1.061.908 1.908.908 1.697 0 2.546-1.204 2.546-3.612 0-2.412-.844-3.619-2.533-3.619-.846 0-1.484.305-1.914.916-.43.606-.646 1.507-.646 2.703zm17.343 5.37h-2.12v-8.821h-2.457l-.11.981c-.284 2.496-.535 4.25-.755 5.26-.215 1.007-.531 1.715-.947 2.125-.416.41-.979.61-1.688.6-.385 0-.723-.053-1.016-.16v-1.861c.265.097.515.146.748.146.242 0 .435-.117.576-.352.142-.239.275-.678.398-1.318.129-.645.296-1.697.501-3.158.211-1.465.389-2.85.536-4.154h6.334V94.88zm9.602-3.349c0 2.232-1.382 3.348-4.146 3.348h-2.923V84.17h2.127v4.11h.838c1.308 0 2.319.283 3.033.85.714.566 1.071 1.367 1.071 2.402zm-4.942 1.487h.714c.718 0 1.245-.122 1.579-.366.334-.25.501-.623.501-1.12 0-.494-.17-.848-.508-1.063-.339-.22-.92-.33-1.743-.33h-.543v2.88zm5.655-.029h.776a26.384 26.384 0 001.572-4.242 31.05 31.05 0 00.858-4.579h5.847v8.821h1.338V98h-2.052v-3.12h-6.286V98h-2.053v-5.011zm4.894-6.93a26.403 26.403 0 01-.735 3.553 25.933 25.933 0 01-1.146 3.377h3.919v-6.93h-2.038zm12.827 8.821h-5.779V84.167h5.779v1.861h-3.651v2.352h3.397v1.86h-3.397v2.763h3.651v1.875zm4.227-5.671h.7c.655 0 1.144-.137 1.469-.41.325-.279.487-.682.487-1.21 0-.532-.137-.925-.411-1.179-.27-.254-.696-.38-1.277-.38h-.968v3.179zm4.805-1.7c0 1.153-.339 2.034-1.016 2.645-.673.61-1.631.916-2.876.916h-.913v3.81h-2.127V84.167h3.205c1.217 0 2.141.281 2.773.843.636.557.954 1.39.954 2.498zm11.001 2.001c0 1.772-.412 3.135-1.235 4.087-.824.953-2.004 1.429-3.542 1.429-1.537 0-2.717-.477-3.541-1.429-.824-.952-1.235-2.32-1.235-4.102 0-1.783.411-3.143 1.235-4.081.828-.943 2.013-1.414 3.555-1.414 1.542 0 2.72.474 3.535 1.421.818.948 1.228 2.31 1.228 4.088zm-7.323 0c0 1.196.213 2.097.638 2.703.426.605 1.062.908 1.908.908 1.698 0 2.547-1.204 2.547-3.612 0-2.412-.845-3.619-2.533-3.619-.846 0-1.485.305-1.915.916-.43.606-.645 1.507-.645 2.703zm9.402-5.342h3.123c1.423 0 2.455.218 3.095.652.646.43.968 1.117.968 2.06 0 .639-.142 1.164-.425 1.574-.28.41-.652.657-1.119.74v.073c.636.152 1.093.435 1.372.85.284.415.426.967.426 1.656 0 .977-.332 1.739-.995 2.286-.659.547-1.556.82-2.69.82h-3.755V84.17zm2.128 4.242h1.235c.577 0 .993-.095 1.249-.285.261-.19.392-.506.392-.945 0-.41-.142-.704-.426-.88-.279-.18-.723-.27-1.331-.27h-1.119v2.38zm0 1.803v2.79h1.386c.586 0 1.018-.119 1.297-.358.28-.24.419-.606.419-1.1 0-.888-.595-1.332-1.784-1.332h-1.318zM169.457 76V44.8H183V37h-35v7.8h13.654V76h7.803z"/><path fill-rule="evenodd" clip-rule="evenodd" d="M168.75 6.423c-1.137.937-1.439 2.627-.908 5.07-.125-1.428.48-2.568 1.815-3.42.888-.801 1.191-2.333.909-4.598-.237 1.353-.843 2.338-1.816 2.955v-.007zm-6.766 22.041a6.542 6.542 0 01-1.882-4.388 6.512 6.512 0 011.628-4.483c1.081-1.156 1.266-2.422.553-3.797 1.064.569 1.582 1.974 1.553 4.217 1.742-3.475 1.672-6.38-.211-8.715.732.187 1.45.422 2.149.704-.227-1.273-.694-2.355-1.401-3.245-1.404-2.65-1.318-5.569.256-8.757-.672 2.066-.332 4.027 1.021 5.883 1.317 1.883 1.628 4.044.933 6.482 4.205 2.066 5.466 5.76 3.781 11.082 1.347-.89 1.842-2.463 1.484-4.722 1.812 3.298 1.958 5.992.437 8.08a7.5 7.5 0 001.821-4.737c.053-2.27-.411-4.076-1.392-5.418-1.364-1.6-2.177-2.941-2.44-4.022-.596-3.965.35-6.801 2.838-8.51-2.213 2.49-2.075 5.815.415 9.973-.409-2.334.183-3.765 1.776-4.292-1.604.634-1.449 3.78.465 9.437a9.395 9.395 0 01-1.061 6.826c-1.211 2.073-3.169 3.645-5.503 4.415s-4.88.687-7.154-.235c-2.273-.923-4.116-2.62-5.177-4.767-1.488-3.406-1.073-7.51 1.245-12.313 1.54-2.522 2.334-5.486 2.383-8.893-.266-1.65-.827-2.974-1.683-3.973 2.669 2.24 4.096 4.69 4.28 7.352.19 2.415-.443 4.558-1.901 6.43-1.98 2.654-2.945 5.719-2.894 9.194a7.526 7.526 0 001.264 2.974 7.838 7.838 0 002.417 2.212v.007zm6.472.8c1.929-1.605 2.053-3.626.372-6.061-1.375-1.902-1.877-3.641-1.503-5.217-2.446 1.271-2.384 5.134-1.714 8.216-.708-.523-1.985-3.094-1.937-4.338-1.944 2.973-1.791 5.467.46 7.481a8.281 8.281 0 004.318-.08h.004z"/><path d="M314.672 57l2.414-11.422h2.57c.808 0 1.461.122 1.961.367s.865.589 1.094 1.032c.229.442.344.963.344 1.562 0 .63-.107 1.19-.321 1.68-.208.49-.52.903-.937 1.242-.417.339-.935.596-1.555.773-.614.172-1.328.258-2.14.258h-1.164L315.984 57h-1.312zm2.508-5.625h1.125c.708 0 1.315-.102 1.82-.305.51-.203.901-.51 1.172-.922.276-.416.414-.94.414-1.57 0-.656-.185-1.13-.555-1.422-.37-.297-.932-.445-1.687-.445h-1.297l-.992 4.664zm8.976 5.781c-.463 0-.87-.112-1.218-.336-.349-.224-.62-.554-.813-.992-.193-.437-.289-.971-.289-1.601s.065-1.237.195-1.82a7.602 7.602 0 01.571-1.626c.244-.5.539-.937.882-1.312a3.92 3.92 0 011.172-.875 3.183 3.183 0 011.399-.313c.385 0 .718.073 1 .219.286.146.523.339.711.578.192.234.343.484.453.75h.078l.5-1.39h.992L329.977 57h-1.039l.234-1.656h-.063a6.374 6.374 0 01-.804.883 4.03 4.03 0 01-.993.671 2.641 2.641 0 01-1.156.258zm.422-1.078c.401 0 .797-.146 1.188-.437.395-.297.75-.696 1.062-1.196.318-.505.56-1.073.727-1.703.083-.307.138-.588.164-.844.031-.26.047-.502.047-.726 0-.537-.144-.969-.43-1.297-.281-.333-.667-.5-1.156-.5-.349 0-.677.089-.985.266a2.873 2.873 0 00-.836.726 4.729 4.729 0 00-.632 1.078 6.66 6.66 0 00-.415 1.328c-.093.48-.14.972-.14 1.477 0 .599.122 1.055.367 1.367.245.308.591.461 1.039.461zm9.484 1.078c-.635 0-1.192-.12-1.671-.36a2.639 2.639 0 01-1.11-1.077c-.26-.474-.39-1.063-.39-1.766 0-.61.065-1.195.195-1.758a6.44 6.44 0 01.586-1.554 5.07 5.07 0 01.93-1.243 3.927 3.927 0 011.242-.82 3.893 3.893 0 011.531-.297c.37 0 .737.037 1.102.11a4.52 4.52 0 011 .297l-.368 1.093a4.835 4.835 0 00-.773-.281 3.517 3.517 0 00-.953-.125c-.474 0-.906.12-1.297.36a3.27 3.27 0 00-1 1c-.276.421-.49.906-.641 1.453a6.55 6.55 0 00-.226 1.75c0 .442.078.825.234 1.148.156.318.38.562.672.734.297.172.651.258 1.063.258.38 0 .736-.052 1.07-.156.338-.104.669-.23.992-.375v1.11a4.831 4.831 0 01-2.188.5zm3.696-.156l1.836-8.602h1.148l-.203 1.649h.016c.198-.271.435-.544.711-.82.281-.282.606-.516.976-.704.375-.192.8-.289 1.274-.289.458 0 .851.086 1.179.258.328.167.581.412.758.735.177.317.266.703.266 1.156 0 .24-.018.482-.055.726a9.81 9.81 0 01-.117.657L346.406 57h-1.383l1.157-5.406c.047-.235.083-.435.109-.602.031-.166.047-.323.047-.469 0-.364-.099-.64-.297-.828-.198-.187-.49-.28-.875-.28-.38 0-.781.13-1.203.39-.422.26-.813.672-1.172 1.234-.359.557-.638 1.286-.836 2.188L341.148 57h-1.39zm8.476 3.828l2.618-12.39h1.062l-.211 1.664h.055c.245-.323.513-.62.804-.891.297-.276.62-.497.969-.664.354-.167.74-.25 1.157-.25.468 0 .877.112 1.226.336.349.219.62.547.813.984.197.433.296.972.296 1.617a8.55 8.55 0 01-.187 1.797 7.3 7.3 0 01-.531 1.617 5.408 5.408 0 01-.867 1.313c-.339.375-.727.67-1.165.883a3.316 3.316 0 01-1.445.312c-.401 0-.747-.07-1.039-.21a2.318 2.318 0 01-.727-.571 3.077 3.077 0 01-.46-.758h-.071a19.31 19.31 0 01-.101.758 9.38 9.38 0 01-.133.773l-.781 3.68h-1.282zm4.5-4.75a1.9 1.9 0 001-.273c.308-.183.581-.43.821-.742a4.62 4.62 0 00.617-1.102 6.74 6.74 0 00.39-1.328c.089-.469.133-.946.133-1.43 0-.604-.122-1.06-.367-1.367-.239-.307-.599-.461-1.078-.461-.25 0-.503.063-.758.188-.255.12-.502.291-.742.515-.24.219-.464.48-.672.781-.208.302-.39.636-.547 1-.151.365-.271.75-.359 1.157a5.824 5.824 0 00-.133 1.25c0 .547.138.987.414 1.32.281.328.708.492 1.281.492zm8.188 1.078c-.464 0-.87-.112-1.219-.336-.349-.224-.62-.554-.812-.992-.193-.437-.289-.971-.289-1.601s.065-1.237.195-1.82a7.547 7.547 0 01.57-1.626c.245-.5.539-.937.883-1.312a3.92 3.92 0 011.172-.875 3.175 3.175 0 011.398-.313 2.085 2.085 0 011.711.797c.193.234.344.484.453.75h.078l.5-1.39h.993L364.742 57h-1.039l.235-1.656h-.063a6.382 6.382 0 01-.805.883 4.05 4.05 0 01-.992.671 2.644 2.644 0 01-1.156.258zm.422-1.078c.401 0 .797-.146 1.187-.437.396-.297.75-.696 1.063-1.196.317-.505.56-1.073.726-1.703.084-.307.138-.588.164-.844a5.97 5.97 0 00.047-.726c0-.537-.143-.969-.429-1.297-.282-.333-.667-.5-1.157-.5-.349 0-.677.089-.984.266a2.873 2.873 0 00-.836.726 4.695 4.695 0 00-.633 1.078 6.724 6.724 0 00-.414 1.328c-.094.48-.14.972-.14 1.477 0 .599.122 1.055.367 1.367.244.308.591.461 1.039.461zm9.648 1.078c-.771 0-1.401-.143-1.89-.43-.49-.291-.852-.7-1.086-1.226-.235-.526-.352-1.143-.352-1.852 0-.604.065-1.174.195-1.71a5.737 5.737 0 01.571-1.47 4.52 4.52 0 01.929-1.156c.37-.322.789-.572 1.258-.75a4.434 4.434 0 011.563-.265c.599 0 1.106.083 1.523.25.417.161.732.4.945.719.219.312.329.7.329 1.164 0 .416-.094.776-.282 1.078a2.21 2.21 0 01-.781.734 3.829 3.829 0 01-1.141.414v.032c.49.114.886.31 1.188.585.307.271.461.685.461 1.243 0 .395-.11.8-.328 1.21-.219.407-.578.748-1.078 1.024-.5.27-1.175.406-2.024.406zm.094-1.062c.479 0 .872-.073 1.18-.219.307-.151.533-.349.679-.594a1.5 1.5 0 00.219-.781c0-.276-.073-.505-.219-.688-.146-.187-.372-.328-.679-.421-.308-.094-.709-.141-1.204-.141h-2.07c0 .052-.002.117-.008.195v.242c0 .834.188 1.443.563 1.829.375.385.888.578 1.539.578zm-1.945-3.907h1.695c.5 0 .963-.049 1.391-.148.432-.099.781-.266 1.046-.5.266-.24.399-.565.399-.977 0-.328-.115-.606-.344-.835-.224-.235-.604-.352-1.14-.352-.516 0-.98.112-1.391.336a2.917 2.917 0 00-1.039.969c-.281.416-.487.919-.617 1.508zm10.156 4.97c-.604 0-1.12-.092-1.547-.274a2.06 2.06 0 01-.961-.828c-.219-.37-.328-.828-.328-1.375 0-.235.018-.49.055-.766.041-.281.088-.544.14-.789l.992-4.688h1.313l-.828 3.758c.281-.052.586-.099.914-.14a8.051 8.051 0 011.015-.063c.646 0 1.167.097 1.563.29.396.192.685.458.867.796.188.339.281.732.281 1.18 0 .515-.127.995-.382 1.437-.256.438-.641.792-1.157 1.063-.515.265-1.161.398-1.937.398zm.117-1.063c.359 0 .669-.044.93-.133.26-.094.474-.221.64-.383.172-.161.297-.346.375-.555.084-.213.125-.437.125-.671 0-.26-.054-.487-.164-.68-.109-.193-.291-.341-.547-.445-.25-.11-.588-.164-1.015-.164-.339 0-.664.018-.977.054a8.957 8.957 0 00-.851.125 8.04 8.04 0 00-.141.774 4.587 4.587 0 00-.039.562c0 .443.12.807.359 1.094.24.281.675.422 1.305.422zm8.922.906l1.836-8.602h1.148l-.203 1.649h.016c.198-.271.435-.544.711-.82.281-.282.607-.516.976-.704.375-.192.8-.289 1.274-.289.458 0 .851.086 1.179.258.329.167.581.412.758.735.177.317.266.703.266 1.156 0 .24-.018.482-.055.726a9.81 9.81 0 01-.117.657L394.984 57h-1.382l1.156-5.406c.047-.235.083-.435.109-.602.031-.166.047-.323.047-.469 0-.364-.099-.64-.297-.828-.198-.187-.489-.28-.875-.28-.38 0-.781.13-1.203.39-.422.26-.812.672-1.172 1.234-.359.557-.638 1.286-.836 2.188L389.727 57h-1.391zm8.75.102c-.13 0-.253-.013-.367-.04a2.054 2.054 0 01-.266-.062v-1.125c.073.031.154.055.242.07a1.5 1.5 0 00.274.024 1.3 1.3 0 00.695-.188c.203-.125.391-.323.563-.593.177-.271.351-.626.523-1.063.177-.438.37-.969.578-1.594.245-.713.479-1.333.703-1.86.229-.525.485-.957.766-1.296a2.636 2.636 0 011.039-.766c.411-.166.922-.25 1.531-.25.349 0 .685.024 1.008.07.323.048.62.107.891.18L403.469 57h-1.313l1.625-7.477a2.455 2.455 0 00-.273-.039 2.33 2.33 0 00-.344-.023c-.453 0-.823.104-1.109.312-.282.204-.539.56-.774 1.07-.229.506-.5 1.214-.812 2.126a27.856 27.856 0 01-.68 1.797 6.802 6.802 0 01-.687 1.297c-.24.343-.524.604-.852.78-.323.173-.711.259-1.164.259zm12.578.054c-.641 0-1.193-.127-1.656-.383-.464-.26-.82-.63-1.07-1.109-.245-.484-.368-1.062-.368-1.734 0-.693.099-1.373.297-2.04a6.453 6.453 0 01.867-1.82 4.471 4.471 0 011.352-1.304 3.361 3.361 0 011.781-.485c.787 0 1.383.177 1.789.532.406.348.61.83.61 1.445 0 .432-.102.83-.305 1.195-.198.365-.505.682-.922.953-.411.266-.935.474-1.57.625-.63.146-1.378.219-2.242.219h-.297c-.011.094-.021.198-.032.313a7.34 7.34 0 00-.007.32c0 .687.166 1.226.5 1.617.333.385.833.578 1.5.578.411 0 .799-.057 1.164-.172.369-.12.755-.276 1.156-.468v1.117a8.514 8.514 0 01-1.164.437c-.391.11-.852.164-1.383.164zm-1.547-4.968h.188c.666 0 1.278-.058 1.836-.172.557-.12 1.005-.313 1.343-.578.339-.271.508-.63.508-1.079a.946.946 0 00-.297-.718c-.198-.188-.5-.282-.906-.282-.359 0-.713.112-1.062.336-.349.22-.667.54-.954.961-.281.422-.5.933-.656 1.532zM419 57l.523-2.5c.073-.38.157-.742.25-1.086.099-.349.188-.656.266-.922h-.055a4.326 4.326 0 01-.734.781 3.515 3.515 0 01-.945.563 3.149 3.149 0 01-1.149.203c-.468 0-.864-.08-1.187-.242a1.68 1.68 0 01-.727-.734c-.161-.323-.242-.72-.242-1.188 0-.203.018-.432.055-.688a20.4 20.4 0 01.125-.773l.429-1.977h1.305l-.43 2.086c-.062.276-.109.508-.14.696a3.874 3.874 0 00-.039.531c0 .443.106.753.32.93.219.177.516.265.891.265a2.57 2.57 0 001.203-.32c.406-.219.778-.589 1.117-1.11.344-.52.615-1.234.812-2.14l.196-.938h1.297L420.32 57H419zm6.695.156c-.432 0-.81-.08-1.133-.242a1.745 1.745 0 01-.75-.71c-.171-.319-.257-.707-.257-1.165 0-.23.015-.45.047-.664.036-.219.075-.445.117-.68l1.133-5.258h1.312L425 53.844a15.55 15.55 0 00-.102.601 4.06 4.06 0 00-.031.461c0 .37.094.66.281.867.193.204.498.305.914.305.391 0 .8-.133 1.227-.398.432-.266.831-.683 1.195-1.25.37-.573.651-1.315.844-2.227l.797-3.766h1.281L429.594 57h-1.071l.211-1.656h-.07c-.198.27-.437.547-.719.828-.281.276-.606.51-.976.703-.37.188-.795.281-1.274.281zm-107.578 18c-.771 0-1.401-.143-1.89-.43-.49-.291-.852-.7-1.086-1.226-.235-.526-.352-1.143-.352-1.852 0-.604.065-1.174.195-1.71a5.737 5.737 0 01.571-1.47 4.52 4.52 0 01.929-1.156c.37-.322.789-.572 1.258-.75a4.434 4.434 0 011.563-.265c.599 0 1.106.083 1.523.25.417.161.732.4.945.719.219.312.329.7.329 1.164 0 .416-.094.776-.282 1.078a2.21 2.21 0 01-.781.734 3.829 3.829 0 01-1.141.414v.031c.49.115.886.31 1.188.586.307.271.461.685.461 1.243 0 .395-.109.8-.328 1.21-.219.407-.578.748-1.078 1.024-.5.27-1.175.406-2.024.406zm.094-1.062c.479 0 .872-.073 1.18-.219.307-.151.533-.349.679-.594a1.5 1.5 0 00.219-.781c0-.276-.073-.505-.219-.688-.146-.187-.372-.328-.679-.421-.308-.094-.709-.141-1.203-.141h-2.071c0 .052-.002.117-.008.195v.243c0 .833.188 1.442.563 1.828.375.385.888.578 1.539.578zm-1.945-3.906h1.695c.5 0 .963-.05 1.391-.149.432-.099.781-.266 1.046-.5.266-.24.399-.565.399-.977 0-.328-.115-.606-.344-.835-.224-.235-.604-.352-1.141-.352a2.86 2.86 0 00-1.39.336 2.917 2.917 0 00-1.039.969c-.281.416-.487.919-.617 1.507zM327.203 75l1.82-8.563h1.063l-.203 1.657h.078c.187-.271.414-.544.68-.82.265-.282.573-.516.921-.704a2.49 2.49 0 011.204-.289c.604 0 1.062.175 1.375.524.312.349.494.825.547 1.43h.054c.209-.318.459-.626.75-.922a3.84 3.84 0 01.992-.743 2.672 2.672 0 011.235-.289c.661 0 1.172.18 1.531.54.359.359.539.88.539 1.562 0 .245-.016.476-.047.695a5.452 5.452 0 01-.125.672L338.508 75h-1.313l1.157-5.39c.046-.235.08-.438.101-.61.026-.172.039-.336.039-.492 0-.35-.094-.625-.281-.828-.188-.203-.477-.305-.867-.305-.276 0-.563.076-.86.227-.296.15-.586.38-.867.687a4.765 4.765 0 00-.75 1.148 7.347 7.347 0 00-.539 1.633l-.836 3.93h-1.297l1.141-5.367a8.89 8.89 0 00.102-.617c.026-.178.039-.329.039-.454 0-.37-.086-.658-.258-.867-.172-.213-.453-.32-.844-.32-.276 0-.565.073-.867.219-.297.146-.586.375-.867.687a5.095 5.095 0 00-.774 1.196c-.234.484-.422 1.067-.562 1.75L328.508 75h-1.305zm17.383.156c-.641 0-1.193-.127-1.656-.383a2.648 2.648 0 01-1.071-1.109c-.244-.484-.367-1.062-.367-1.734 0-.693.099-1.373.297-2.04a6.453 6.453 0 01.867-1.82 4.471 4.471 0 011.352-1.304 3.361 3.361 0 011.781-.485c.787 0 1.383.177 1.789.531.406.35.61.831.61 1.446 0 .432-.102.83-.305 1.195-.198.365-.505.682-.922.953-.412.266-.935.474-1.57.625-.631.146-1.378.219-2.243.219h-.296c-.011.094-.021.198-.032.313a7.42 7.42 0 00-.008.32c0 .687.167 1.226.5 1.617.334.385.834.578 1.5.578.412 0 .8-.057 1.165-.172.369-.12.755-.276 1.156-.469v1.118a8.613 8.613 0 01-1.164.437c-.391.11-.852.164-1.383.164zm-1.547-4.969h.188a9.12 9.12 0 001.835-.171c.558-.12 1.006-.313 1.344-.579.339-.27.508-.63.508-1.078a.946.946 0 00-.297-.718c-.198-.188-.5-.282-.906-.282-.359 0-.714.112-1.063.336-.349.22-.666.54-.953.961-.281.422-.5.932-.656 1.531zM349.07 75l1.836-8.602h1.149l-.203 1.649h.015c.198-.271.435-.544.711-.82.281-.282.607-.516.977-.704a2.744 2.744 0 011.273-.289c.458 0 .852.086 1.18.258.328.167.581.412.758.735.177.317.265.703.265 1.156 0 .24-.018.482-.054.726-.037.245-.076.464-.118.657L355.719 75h-1.383l1.156-5.406c.047-.235.084-.435.11-.602.031-.166.046-.323.046-.469 0-.364-.099-.64-.296-.828-.198-.187-.49-.28-.875-.28-.381 0-.782.13-1.204.39-.421.26-.812.672-1.171 1.234-.36.557-.638 1.287-.836 2.188L350.461 75h-1.391zm8.75.102c-.13 0-.252-.014-.367-.04a2.032 2.032 0 01-.265-.062v-1.125c.072.031.153.055.242.07.083.016.174.024.273.024.261 0 .492-.063.695-.188.204-.125.391-.323.563-.594.177-.27.351-.624.523-1.062.177-.438.37-.969.578-1.594.245-.713.48-1.333.704-1.86.229-.525.484-.958.765-1.296a2.644 2.644 0 011.039-.766c.412-.166.922-.25 1.532-.25.349 0 .684.024 1.007.07.323.048.62.108.891.18L364.203 75h-1.312l1.625-7.477a2.443 2.443 0 00-.274-.039 2.33 2.33 0 00-.344-.023c-.453 0-.822.104-1.109.312-.281.204-.539.56-.773 1.07-.23.506-.5 1.214-.813 2.126a27.277 27.277 0 01-.68 1.797 6.746 6.746 0 01-.687 1.296c-.24.344-.524.605-.852.782-.323.172-.711.258-1.164.258zm12.641.023c-.656 0-1.221-.133-1.695-.398a2.749 2.749 0 01-1.094-1.141c-.25-.495-.375-1.078-.375-1.75 0-.542.06-1.076.18-1.602a6.504 6.504 0 01.531-1.5c.234-.474.523-.89.867-1.25a3.81 3.81 0 011.203-.851 3.585 3.585 0 011.516-.313c.666 0 1.234.136 1.703.407.474.265.836.645 1.086 1.14.255.495.383 1.08.383 1.758 0 .531-.06 1.06-.18 1.586a6.473 6.473 0 01-.524 1.5 4.91 4.91 0 01-.867 1.25 3.84 3.84 0 01-1.203.852 3.622 3.622 0 01-1.531.312zm.078-1.078c.323 0 .63-.068.922-.203.292-.136.557-.331.797-.586.239-.26.445-.576.617-.945.177-.376.313-.8.406-1.274a7.65 7.65 0 00.149-1.562c0-.339-.06-.667-.18-.985a1.732 1.732 0 00-.578-.781c-.266-.208-.62-.313-1.063-.313-.364 0-.703.076-1.015.227a2.672 2.672 0 00-.828.64 3.894 3.894 0 00-.625.977 6.111 6.111 0 00-.391 1.235 7.236 7.236 0 00-.133 1.414c0 .682.167 1.213.5 1.593.334.375.807.563 1.422.563zM376 75l1.805-8.547h1.687l.953 6.914h.032l3.867-6.914h1.82L384.375 75h-1.187l1.078-5.086.281-1.14.265-1.079h-.031L380.672 75h-1.031l-1.024-7.297h-.047c-.036.292-.091.643-.164 1.055a35.25 35.25 0 01-.234 1.187L377.141 75H376zm18.367.156c-.614 0-1.13-.13-1.547-.39a2.463 2.463 0 01-.945-1.094c-.208-.469-.313-1.013-.313-1.633 0-.5.055-1 .165-1.5.109-.505.273-.982.492-1.43a5.09 5.09 0 01.804-1.195 3.613 3.613 0 011.11-.82 3.216 3.216 0 011.414-.305c.432 0 .794.068 1.086.203.291.13.534.305.726.524.193.218.347.453.461.703h.047a2.23 2.23 0 00.016-.274v-.265c0-1.323-.177-2.305-.531-2.946-.355-.645-.901-.968-1.641-.968-.276 0-.565.034-.867.101a3.828 3.828 0 00-.813.258l-.328-.977a4.92 4.92 0 01.992-.328c.401-.093.792-.14 1.172-.14.771 0 1.401.187 1.891.562.489.375.851.93 1.086 1.664.234.73.351 1.625.351 2.688 0 .536-.041 1.094-.125 1.672-.078.578-.2 1.15-.367 1.718a9.156 9.156 0 01-.641 1.602c-.26.5-.57.943-.929 1.328-.354.385-.763.69-1.227.914a3.525 3.525 0 01-1.539.328zm.133-1.094a1.9 1.9 0 00.914-.226 2.82 2.82 0 00.774-.648c.234-.276.445-.597.632-.961.188-.37.349-.771.485-1.204.135-.432.244-.88.328-1.343a3.472 3.472 0 00-.422-.946 2.157 2.157 0 00-.649-.671 1.567 1.567 0 00-.898-.258c-.302 0-.591.07-.867.21-.276.141-.531.34-.766.594a3.984 3.984 0 00-.601.907 5.396 5.396 0 00-.407 1.156 6.23 6.23 0 00-.14 1.344c0 .583.127 1.07.383 1.46.255.391.666.587 1.234.587zm9.242 1.063c-.656 0-1.221-.133-1.695-.398a2.749 2.749 0 01-1.094-1.141c-.25-.495-.375-1.078-.375-1.75 0-.542.06-1.076.18-1.602.12-.53.297-1.03.531-1.5.234-.474.523-.89.867-1.25a3.81 3.81 0 011.203-.851 3.589 3.589 0 011.516-.313c.667 0 1.234.136 1.703.407.474.265.836.645 1.086 1.14.255.495.383 1.08.383 1.758 0 .531-.06 1.06-.18 1.586a6.47 6.47 0 01-.523 1.5 4.91 4.91 0 01-.867 1.25c-.344.36-.745.643-1.204.852a3.622 3.622 0 01-1.531.312zm.078-1.078c.323 0 .631-.068.922-.203.292-.136.557-.331.797-.586.24-.26.445-.576.617-.945.177-.376.313-.8.406-1.274a7.65 7.65 0 00.149-1.562c0-.339-.06-.667-.18-.985a1.732 1.732 0 00-.578-.781c-.265-.208-.62-.313-1.062-.313-.365 0-.703.076-1.016.227a2.695 2.695 0 00-.828.64 3.922 3.922 0 00-.625.977 6.111 6.111 0 00-.391 1.235 7.314 7.314 0 00-.133 1.414c0 .682.167 1.213.5 1.593.334.375.808.563 1.422.563zm5.461.953l1.805-8.547h1.687l.954 6.914h.031l3.867-6.914h1.82L417.656 75h-1.187l1.078-5.086.281-1.14c.094-.386.182-.745.266-1.079h-.032L413.953 75h-1.031l-1.024-7.297h-.046a23.35 23.35 0 01-.164 1.055 35.14 35.14 0 01-.235 1.187L410.422 75h-1.141zm14.508.156c-.641 0-1.193-.127-1.656-.383a2.648 2.648 0 01-1.071-1.109c-.244-.484-.367-1.062-.367-1.734 0-.693.099-1.373.297-2.04a6.453 6.453 0 01.867-1.82 4.471 4.471 0 011.352-1.304 3.361 3.361 0 011.781-.485c.787 0 1.383.177 1.789.531.407.35.61.831.61 1.446 0 .432-.102.83-.305 1.195-.198.365-.505.682-.922.953-.411.266-.935.474-1.57.625-.63.146-1.378.219-2.242.219h-.297c-.011.094-.021.198-.032.313a7.34 7.34 0 00-.007.32c0 .687.166 1.226.5 1.617.333.385.833.578 1.5.578.411 0 .799-.057 1.164-.172.369-.12.755-.276 1.156-.469v1.118a8.563 8.563 0 01-1.164.437c-.391.11-.852.164-1.383.164zm-1.547-4.969h.188c.666 0 1.278-.057 1.836-.171.557-.12 1.005-.313 1.343-.579.339-.27.508-.63.508-1.078a.946.946 0 00-.297-.718c-.198-.188-.5-.282-.906-.282-.359 0-.713.112-1.062.336-.349.22-.667.54-.954.961-.281.422-.5.932-.656 1.531zM293.5 43v33"/></svg><svg viewBox="0 0 395 87" id="offer__button" xmlns="http://www.w3.org/2000/svg"><g filter="url(#ba)"><rect width="395" height="87" rx="11"/></g><path d="M2 2h391v83H2z"/><path opacity=".31" d="M386 29.334V17.51c-.072-2.25-.95-4.38-2.447-5.938-1.498-1.558-3.497-2.422-5.572-2.408H16.715a7.189 7.189 0 00-2.95.632 7.695 7.695 0 00-2.502 1.808 8.432 8.432 0 00-1.673 2.709A8.969 8.969 0 009 17.51v35.67s48.457-18.17 151.611-24.417c95.891-5.806 225.389.57 225.389.57z"/><path opacity=".15" d="M12 78.19h366.29a7.19 7.19 0 002.95-.633 7.692 7.692 0 002.501-1.809 8.435 8.435 0 001.672-2.709 8.95 8.95 0 00.587-3.196V52.18s-15.338 16.455-98.566 19.86C214.669 75.033 12 78.19 12 78.19z"/><defs><linearGradient id="bb" x1="0" y1="32" x2="395" y2="32" gradientUnits="userSpaceOnUse"><stop stop-color="#2194FF"/><stop offset=".522" stop-color="#81C0FB"/><stop offset="1" stop-color="#108CFF"/></linearGradient><linearGradient id="bc" x1="197.5" y1="-.27" x2="197.5" y2="63.595" gradientUnits="userSpaceOnUse"><stop stop-color="#81C0FB"/><stop offset="1" stop-color="#fff"/></linearGradient><filter id="ba" x="0" y="0" width="395" height="91" filterUnits="userSpaceOnUse" color-interpolation-filters="sRGB"><feFlood flood-opacity="0" result="BackgroundImageFix"/><feBlend in="SourceGraphic" in2="BackgroundImageFix" result="shape"/><feColorMatrix in="SourceAlpha" values="0 0 0 0 0 0 0 0 0 0 0 0 0 0 0 0 0 0 127 0" result="hardAlpha"/><feOffset dy="4"/><feGaussianBlur stdDeviation="6"/><feComposite in2="hardAlpha" operator="arithmetic" k2="-1" k3="1"/><feColorMatrix values="0 0 0 0 0 0 0 0 0 0 0 0 0 0 0 0 0 0 0.45 0"/><feBlend in2="shape" result="effect1_innerShadow_24210_20"/></filter></defs></svg><svg viewBox="0 0 77 25" id="perk__icon--time" xmlns="http://www.w3.org/2000/svg"><g clip-path="url(#ca)"><path d="M64.5 6.238a6.27 6.27 0 00-6.262 6.263 6.27 6.27 0 006.262 6.262 6.27 6.27 0 006.262-6.262A6.27 6.27 0 0064.5 6.238zm0-1.84a1.222 1.222 0 01-1.222-1.222V1.222a1.222 1.222 0 112.444 0v1.954c0 .675-.548 1.222-1.222 1.222zm0 16.204c-.675 0-1.222.547-1.222 1.221v1.955a1.222 1.222 0 102.444 0v-1.954c0-.675-.548-1.222-1.222-1.222zM70.228 6.77a1.223 1.223 0 010-1.727l1.383-1.382a1.223 1.223 0 011.728 1.728L71.956 6.77a1.222 1.222 0 01-1.728 0zM58.77 18.23a1.22 1.22 0 00-1.727 0l-1.382 1.381a1.222 1.222 0 001.728 1.728l1.382-1.383a1.22 1.22 0 000-1.726zm13.832-5.73c0-.675.547-1.222 1.221-1.222h1.955a1.222 1.222 0 110 2.443h-1.955a1.221 1.221 0 01-1.221-1.221zm-16.204 0c0-.675-.547-1.222-1.222-1.222h-1.954a1.222 1.222 0 100 2.443h1.954c.675 0 1.222-.546 1.222-1.221zm13.83 5.73a1.223 1.223 0 011.728 0l1.383 1.382a1.22 1.22 0 11-1.728 1.727l-1.383-1.382a1.22 1.22 0 010-1.727zM58.77 6.77a1.222 1.222 0 000-1.727l-1.38-1.382a1.221 1.221 0 00-1.73 1.729l1.382 1.382a1.22 1.22 0 001.728 0z"/></g><g opacity=".4" clip-path="url(#cb)"><path d="M19.513 14.45a.703.703 0 00-.588.127 7.503 7.503 0 01-2.276 1.33 7.126 7.126 0 01-2.583.46 7.519 7.519 0 01-5.32-2.2 7.524 7.524 0 01-2.199-5.32c0-.87.154-1.715.41-2.482a6.87 6.87 0 011.227-2.2.653.653 0 00-.102-.921.703.703 0 00-.589-.128c-2.174.588-4.066 1.893-5.421 3.632A10.094 10.094 0 000 12.888c0 2.79 1.125 5.322 2.967 7.164a10.043 10.043 0 007.16 2.968c2.353 0 4.527-.819 6.266-2.175a10.087 10.087 0 003.58-5.603.62.62 0 00-.46-.793z"/></g><g clip-path="url(#cc)"><path d="M28.962 10.877c.065-.01.131-.016.198-.015h11.287l-.246-.114a2.286 2.286 0 01-.647-.458L36.39 7.125a1.185 1.185 0 01-.166-1.517 1.145 1.145 0 011.717-.15l5.724 5.725a1.145 1.145 0 010 1.62l-5.724 5.724a1.145 1.145 0 01-1.717-.115 1.185 1.185 0 01.166-1.517l3.16-3.17c.168-.169.36-.31.572-.419l.344-.154H29.223a1.185 1.185 0 01-1.208-.962 1.145 1.145 0 01.947-1.313z"/></g><defs><clipPath id="ca"><path transform="translate(52)" d="M0 0h25v25H0z"/></clipPath><clipPath id="cb"><path transform="translate(0 3.054)" d="M0 0h20v20.007H0z"/></clipPath><clipPath id="cc"><path transform="matrix(-1 0 0 1 44 4)" d="M0 0h16v16H0z"/></clipPath></defs></svg><svg viewBox="0 0 76 23" id="perk__icon--weather" xmlns="http://www.w3.org/2000/svg"><g opacity=".4" clip-path="url(#da)"><path d="M7.938 4.144a.645.645 0 00.645-.645V2.201a.645.645 0 00-1.29 0V3.5c0 .356.29.645.645.645zM2.09 6.505l-1.123-.65a.644.644 0 10-.645 1.117l1.124.649a.644.644 0 10.645-1.116zm-.644 7.126l-1.124.65c-.569.328-.335 1.202.323 1.202.292 0 .366-.141 1.446-.735a.644.644 0 00-.645-1.117zM14.43 7.62l1.124-.648a.644.644 0 10-.645-1.116l-1.124.649a.644.644 0 10.645 1.116zm-7.795 4.639a6.122 6.122 0 015.226-4.976 5.145 5.145 0 00-3.923-1.815 5.163 5.163 0 00-5.156 5.159 5.14 5.14 0 001.389 3.517 4.933 4.933 0 012.464-1.885z"/><path d="M17.14 11.542a4.846 4.846 0 00-4.48-3.022 4.835 4.835 0 00-4.834 4.787c-1.83.2-3.223 1.771-3.223 3.613a3.639 3.639 0 003.634 3.636c10.141-.01 9.586.026 9.763-.03a4.514 4.514 0 00-.858-8.985z"/></g><path d="M66 10.711a.367.367 0 00-.315-.178h-1.37a.368.368 0 00-.314.178l-.66 1.1a.367.367 0 000 .377l.66 1.1a.368.368 0 00.314.179h1.37a.366.366 0 00.314-.178l.66-1.1a.366.366 0 000-.377l-.66-1.1z"/><path d="M73.904 16.294l-1.467-.846 1.18-.434a.763.763 0 00.497-.884.735.735 0 00-.963-.507l-2.366.87-1.858-1.072.62-1.048a.733.733 0 000-.746l-.62-1.048 1.858-1.072 2.366.87a.735.735 0 00.976-.565.758.758 0 00-.504-.824l-1.185-.435 1.467-.847a.76.76 0 00.338-.953.734.734 0 00-1.037-.337l-1.503.868.214-1.237a.764.764 0 00-.47-.859.733.733 0 00-.968.567l-.43 2.483-1.87 1.08-.584-.99a.733.733 0 00-.63-.361h-1.232V5.744l1.907-1.589a.761.761 0 00.195-.957.733.733 0 00-1.104-.195l-.998.831V2.14a.76.76 0 00-.61-.762.733.733 0 00-.856.723v1.734l-.968-.806a.76.76 0 00-.976-.019.734.734 0 00.008 1.121l1.936 1.614v2.223h-1.232a.734.734 0 00-.631.36l-.585.99-1.87-1.08-.422-2.442a.763.763 0 00-.78-.648.733.733 0 00-.673.857l.22 1.278-1.466-.847a.76.76 0 00-.966.146.734.734 0 00.198 1.104l1.504.867-1.186.436a.759.759 0 00-.505.824.734.734 0 00.977.565l2.365-.87 1.858 1.072-.62 1.048a.733.733 0 000 .746l.62 1.048-1.858 1.072-2.365-.87a.735.735 0 00-.964.507.763.763 0 00.497.884l1.179.433-1.463.843a.763.763 0 00-.337.968.734.734 0 001.03.325l1.504-.868-.214 1.242a.747.747 0 00.4.821.748.748 0 00.316.079.734.734 0 00.721-.609l.43-2.484 1.87-1.08.584.99a.733.733 0 00.632.36h1.232v2.222l-1.907 1.59a.76.76 0 00-.194.957.733.733 0 001.104.195l.997-.832v1.695a.76.76 0 00.61.762.732.732 0 00.856-.723v-1.734l.998.83a.735.735 0 001.117-.217.756.756 0 00-.204-.93l-1.91-1.593v-2.223h1.231a.733.733 0 00.631-.36l.585-.99 1.87 1.08.43 2.484a.733.733 0 00.721.608.755.755 0 00.716-.905l-.214-1.232 1.504.867a.734.734 0 001.031-.325.763.763 0 00-.335-.966zm-6.616-3.728l-.66 1.1a1.105 1.105 0 01-.943.534h-1.37a1.104 1.104 0 01-.943-.534l-.66-1.1a1.096 1.096 0 010-1.132l.66-1.1a1.106 1.106 0 01.943-.534h1.37a1.105 1.105 0 01.943.534l.66 1.1a1.095 1.095 0 010 1.132z"/><g clip-path="url(#db)"><path d="M30.962 11.877c.065-.01.131-.016.198-.015h11.287l-.246-.114a2.288 2.288 0 01-.647-.458L38.39 8.125a1.185 1.185 0 01-.166-1.517 1.145 1.145 0 011.717-.15l5.724 5.725a1.145 1.145 0 01.001 1.619l-5.725 5.725a1.145 1.145 0 01-1.717-.115 1.185 1.185 0 01.166-1.517l3.16-3.17c.168-.169.36-.31.572-.419l.344-.154H31.223a1.185 1.185 0 01-1.208-.962 1.145 1.145 0 01.947-1.313z"/></g><defs><clipPath id="da"><path transform="translate(0 .054)" d="M0 0h22v22.008H0z"/></clipPath><clipPath id="db"><path transform="matrix(-1 0 0 1 46 5)" d="M0 0h16v16H0z"/></clipPath></defs></svg><svg viewBox="0 0 101 66" id="price-arrow" xmlns="http://www.w3.org/2000/svg"><path d="M15 9l35.5 36L86 9"/><path d="M1 15l49.5 50L100 15"/><path d="M27 1l23.5 23.5L74 1"/></svg><svg viewBox="0 0 16 16" id="question-icon" xmlns="http://www.w3.org/2000/svg"><g clip-path="url(#fa)"><path d="M6.877.962c-.01.065-.016.131-.015.198v11.287l-.114-.246a2.29 2.29 0 00-.458-.647L3.125 8.39a1.185 1.185 0 00-1.517-.166 1.145 1.145 0 00-.15 1.717l5.725 5.724a1.145 1.145 0 001.619.001l5.725-5.725a1.145 1.145 0 00-.115-1.717 1.185 1.185 0 00-1.517.166l-3.17 3.16a2.29 2.29 0 00-.419.572l-.154.344V1.223A1.185 1.185 0 008.19.015a1.145 1.145 0 00-1.313.947z"/></g><defs><clipPath id="fa"><path transform="rotate(-90 8 8)" d="M0 0h16v16H0z"/></clipPath></defs></svg><svg viewBox="0 0 879 326" id="reviews-slider-after" xmlns="http://www.w3.org/2000/svg"><g filter="url(#ga)"><rect x="20" y="37" width="839" height="252" rx="40"/></g><g filter="url(#gb)"><rect x="40" y="20" width="799" height="286" rx="40"/></g><defs><filter id="ga" x="0" y="17" width="879" height="292" filterUnits="userSpaceOnUse" color-interpolation-filters="sRGB"><feFlood flood-opacity="0" result="BackgroundImageFix"/><feColorMatrix in="SourceAlpha" values="0 0 0 0 0 0 0 0 0 0 0 0 0 0 0 0 0 0 127 0" result="hardAlpha"/><feOffset/><feGaussianBlur stdDeviation="10"/><feComposite in2="hardAlpha" operator="out"/><feColorMatrix values="0 0 0 0 0 0 0 0 0 0 0 0 0 0 0 0 0 0 0.25 0"/><feBlend in2="BackgroundImageFix" result="effect1_dropShadow_24228_8"/><feBlend in="SourceGraphic" in2="effect1_dropShadow_24228_8" result="shape"/></filter><filter id="gb" x="20" y="0" width="839" height="326" filterUnits="userSpaceOnUse" color-interpolation-filters="sRGB"><feFlood flood-opacity="0" result="BackgroundImageFix"/><feColorMatrix in="SourceAlpha" values="0 0 0 0 0 0 0 0 0 0 0 0 0 0 0 0 0 0 127 0" result="hardAlpha"/><feOffset/><feGaussianBlur stdDeviation="10"/><feComposite in2="hardAlpha" operator="out"/><feColorMatrix values="0 0 0 0 0 0 0 0 0 0 0 0 0 0 0 0 0 0 0.25 0"/><feBlend in2="BackgroundImageFix" result="effect1_dropShadow_24228_8"/><feBlend in="SourceGraphic" in2="effect1_dropShadow_24228_8" result="shape"/></filter></defs></svg><svg viewBox="0 0 49 74" id="slider-button-next" xmlns="http://www.w3.org/2000/svg"><path d="M1 21l18 16L1 53"/><path d="M7 11l26 26L7 63"/><path d="M11 1l37 36-37 36"/></svg><svg viewBox="0 0 49 74" id="slider-button-prev" xmlns="http://www.w3.org/2000/svg"><path d="M48 21L30 37l18 16"/><path d="M42 11L16 37l26 26"/><path d="M38 1L1 37l37 36"/></svg></svg>