<svg width="432" height="98" viewBox="0 0 432 98" fill="none" xmlns="http://www.w3.org/2000/svg">
<path d="M5.70637 61.5414V58.6414L11.372 52.8H19.9316V61.5414H5.70637ZM5.70637 76V67.3414H19.9316V76H25.5972V47H8.5188L0 55.7414V76H5.70637Z" fill="#F1F1F1"/>
<path d="M44.1336 76V52.8H54.0383V47H28.4411V52.8H38.4273V76H44.1336Z" fill="#F1F1F1"/>
<path d="M62.189 76V58.6L67.8546 52.8H76.4142V76H82.0798V47H65.0014L56.4826 55.7V76H62.189Z" fill="#F1F1F1"/>
<path d="M91.4453 61.5414V58.6414L97.1109 52.8H105.67V61.5414H91.4453ZM91.4453 76V67.3414H105.67V76H111.336V47H94.2577L85.7389 55.7414V76H91.4453Z" fill="#F1F1F1"/>
<path d="M121.109 76V64.4414H135.334V76H141V47H135.334V58.6414H121.109V47H115.403V76H121.109Z" fill="#F1F1F1"/>
<path d="M195.672 76V52.8H214.067V47H190V76H195.672Z" fill="#F1F1F1"/>
<path d="M220.551 61.5414V58.6414L226.183 52.8H234.691V61.5414H220.551ZM220.551 76V67.3414H234.691V76H240.323V47H223.346L214.878 55.7414V76H220.551Z" fill="#F1F1F1"/>
<path d="M266.204 76L269 73.1414V64.4414L266.204 61.5414L269 58.6414V49.9414L266.204 47H246.351L243.555 49.9414V55.7H249.228V52.8H263.368V58.6414H254.86V64.4414H263.368V70.2H249.228V67.3414H243.555V73.1414L246.351 76H266.204Z" fill="#F1F1F1"/>
<path d="M8.54933 86.674C8.54933 87.3626 8.32056 87.9316 7.86303 88.381C7.40549 88.8303 6.78553 89.116 6.00315 89.2381V89.2821C6.92279 89.3797 7.6274 89.6508 8.11696 90.0952C8.6111 90.5397 8.85816 91.1184 8.85816 91.8315C8.85816 92.8181 8.48299 93.5971 7.73263 94.1685C6.98685 94.7399 5.95282 95.0256 4.63054 95.0256C3.15728 95.0256 1.97455 94.8327 1.08236 94.4469V92.5421C1.51244 92.7619 2.01573 92.9353 2.59222 93.0623C3.17329 93.1844 3.71547 93.2454 4.21876 93.2454C5.90706 93.2454 6.75122 92.7204 6.75122 91.6703C6.75122 91.1966 6.47898 90.8327 5.93452 90.5788C5.39462 90.3248 4.59394 90.1978 3.53246 90.1978H2.59222V88.4249H3.43637C4.49786 88.4249 5.27109 88.3175 5.75608 88.1026C6.24106 87.8877 6.48356 87.5311 6.48356 87.033C6.48356 86.6667 6.33028 86.3761 6.02373 86.1612C5.72176 85.9414 5.26651 85.8315 4.65799 85.8315C3.71547 85.8315 2.80498 86.1221 1.92651 86.7033L1 85.1868C1.57192 84.7814 2.17815 84.486 2.8187 84.3004C3.45925 84.1099 4.17072 84.0147 4.9531 84.0147C6.04661 84.0147 6.91822 84.2589 7.56792 84.7473C8.22219 85.2357 8.54933 85.8779 8.54933 86.674Z" fill="#F1F1F1"/>
<path d="M16.8742 94.8791L16.1467 92.3297H12.4887L11.7612 94.8791H9.46897L13.0103 84.1245H15.6114L19.1664 94.8791H16.8742ZM15.6388 90.4249C14.9663 88.1148 14.5865 86.8083 14.4996 86.5055C14.4172 86.2027 14.3577 85.9634 14.3211 85.7875C14.1701 86.4127 13.7378 87.9585 13.024 90.4249H15.6388Z" fill="#F1F1F1"/>
<path d="M28.3766 94.8791H26.2559V86.0586H22.5636V94.8791H20.4361V84.1685H28.3766V94.8791Z" fill="#F1F1F1"/>
<path d="M33.0366 89.2088H33.7366C34.3909 89.2088 34.8805 89.072 35.2053 88.7985C35.5302 88.5201 35.6926 88.1172 35.6926 87.5897C35.6926 87.0574 35.5553 86.6642 35.2808 86.4103C35.0109 86.1563 34.5854 86.0293 34.0043 86.0293H33.0366V89.2088ZM37.8407 87.5092C37.8407 88.6618 37.5021 89.5433 36.825 90.1538C36.1524 90.7643 35.1939 91.0696 33.9494 91.0696H33.0366V94.8791H30.9091V84.1685H34.1141C35.3311 84.1685 36.2554 84.4493 36.8868 85.011C37.5227 85.5678 37.8407 86.4005 37.8407 87.5092Z" fill="#F1F1F1"/>
<path d="M45.8773 94.8791L45.1498 92.3297H41.4919L40.7644 94.8791H38.4721L42.0134 84.1245H44.6145L48.1696 94.8791H45.8773ZM44.642 90.4249C43.9694 88.1148 43.5896 86.8083 43.5027 86.5055C43.4204 86.2027 43.3609 85.9634 43.3243 85.7875C43.1733 86.4127 42.7409 87.9585 42.0272 90.4249H44.642Z" fill="#F1F1F1"/>
<path d="M49.4392 84.1685H52.5619C53.9848 84.1685 55.0166 84.3858 55.6571 84.8205C56.3023 85.2503 56.6248 85.9365 56.6248 86.8791C56.6248 87.5189 56.483 88.044 56.1993 88.4542C55.9202 88.8645 55.5473 89.1111 55.0806 89.1941V89.2674C55.7166 89.4188 56.1741 89.7021 56.4532 90.1172C56.7369 90.5324 56.8788 91.0842 56.8788 91.7729C56.8788 92.7497 56.547 93.5116 55.8836 94.0586C55.2248 94.6056 54.328 94.8791 53.1933 94.8791H49.4392V84.1685ZM51.5668 88.4103H52.8021C53.3786 88.4103 53.795 88.315 54.0512 88.1245C54.312 87.9341 54.4424 87.619 54.4424 87.1795C54.4424 86.7692 54.3005 86.4762 54.0169 86.3004C53.7378 86.1197 53.294 86.0293 52.6854 86.0293H51.5668V88.4103ZM51.5668 90.2125V93.0037H52.9531C53.5387 93.0037 53.9711 92.884 54.2502 92.6447C54.5293 92.4054 54.6689 92.0391 54.6689 91.5458C54.6689 90.6569 54.0741 90.2125 52.8845 90.2125H51.5668Z" fill="#F1F1F1"/>
<path d="M67.0635 94.8791H64.6477L61.0103 89.4505V94.8791H58.8828V84.1685H61.0103V89.3553L64.6065 84.1685H66.8713L63.2133 89.3114L67.0635 94.8791Z" fill="#F1F1F1"/>
<path d="M74.4687 94.8791L73.7412 92.3297H70.0832L69.3557 94.8791H67.0635L70.6048 84.1245H73.2059L76.7609 94.8791H74.4687ZM73.2333 90.4249C72.5608 88.1148 72.181 86.8083 72.0941 86.5055C72.0117 86.2027 71.9522 85.9634 71.9156 85.7875C71.7647 86.4127 71.3323 87.9585 70.6185 90.4249H73.2333Z" fill="#F1F1F1"/>
<path d="M88.0232 84.1685V86.044H83.8093V94.8791H81.6817V84.1685H88.0232Z" fill="#F1F1F1"/>
<path d="M95.7166 94.8791L94.9891 92.3297H91.3311L90.6037 94.8791H88.3114L91.8527 84.1245H94.4538L98.0089 94.8791H95.7166ZM94.4813 90.4249C93.8087 88.1148 93.4289 86.8083 93.342 86.5055C93.2597 86.2027 93.2002 85.9634 93.1636 85.7875C93.0126 86.4127 92.5802 87.9585 91.8665 90.4249H94.4813Z" fill="#F1F1F1"/>
<path d="M106.21 86.674C106.21 87.3626 105.981 87.9316 105.524 88.381C105.066 88.8303 104.446 89.116 103.664 89.2381V89.2821C104.584 89.3797 105.288 89.6508 105.778 90.0952C106.272 90.5397 106.519 91.1184 106.519 91.8315C106.519 92.8181 106.144 93.5971 105.393 94.1685C104.648 94.7399 103.614 95.0256 102.291 95.0256C100.818 95.0256 99.6354 94.8327 98.7432 94.4469V92.5421C99.1733 92.7619 99.6766 92.9353 100.253 93.0623C100.834 93.1844 101.376 93.2454 101.88 93.2454C103.568 93.2454 104.412 92.7204 104.412 91.6703C104.412 91.1966 104.14 90.8327 103.595 90.5788C103.055 90.3248 102.255 90.1978 101.193 90.1978H100.253V88.4249H101.097C102.159 88.4249 102.932 88.3175 103.417 88.1026C103.902 87.8877 104.144 87.5311 104.144 87.033C104.144 86.6667 103.991 86.3761 103.685 86.1612C103.383 85.9414 102.927 85.8315 102.319 85.8315C101.376 85.8315 100.466 86.1221 99.5874 86.7033L98.6609 85.1868C99.2328 84.7814 99.839 84.486 100.48 84.3004C101.12 84.1099 101.832 84.0147 102.614 84.0147C103.707 84.0147 104.579 84.2589 105.229 84.7473C105.883 85.2357 106.21 85.8779 106.21 86.674Z" fill="#F1F1F1"/>
<path d="M114.734 84.1685V86.044H110.52V94.8791H108.393V84.1685H114.734Z" fill="#F1F1F1"/>
<path d="M125.392 89.5092C125.392 91.2821 124.981 92.6447 124.157 93.5971C123.333 94.5495 122.153 95.0256 120.616 95.0256C119.078 95.0256 117.898 94.5495 117.074 93.5971C116.251 92.6447 115.839 91.2772 115.839 89.4945C115.839 87.7118 116.251 86.3516 117.074 85.4139C117.902 84.4713 119.088 84 120.629 84C122.171 84 123.349 84.4737 124.164 85.4212C124.983 86.3687 125.392 87.7314 125.392 89.5092ZM118.069 89.5092C118.069 90.7057 118.282 91.6068 118.708 92.2125C119.133 92.8181 119.769 93.1209 120.616 93.1209C122.313 93.1209 123.162 91.917 123.162 89.5092C123.162 87.0965 122.318 85.8901 120.629 85.8901C119.783 85.8901 119.145 86.1954 118.715 86.8059C118.285 87.4115 118.069 88.3126 118.069 89.5092Z" fill="#F1F1F1"/>
<path d="M135.412 94.8791H133.292V86.0586H130.835L130.725 87.0403C130.441 89.536 130.19 91.2894 129.97 92.3004C129.755 93.3065 129.439 94.0147 129.023 94.4249C128.607 94.8352 128.044 95.0354 127.335 95.0256C126.95 95.0256 126.612 94.9719 126.319 94.8645V93.0037C126.584 93.1013 126.834 93.1502 127.067 93.1502C127.309 93.1502 127.502 93.033 127.643 92.7985C127.785 92.5592 127.918 92.1197 128.041 91.4799C128.17 90.8352 128.337 89.7827 128.542 88.3223C128.753 86.8571 128.931 85.4725 129.078 84.1685H135.412V94.8791Z" fill="#F1F1F1"/>
<path d="M145.014 91.5311C145.014 93.7631 143.632 94.8791 140.868 94.8791H137.945V84.1685H140.072V88.2784H140.91C142.218 88.2784 143.229 88.5617 143.943 89.1282C144.657 89.6947 145.014 90.4957 145.014 91.5311ZM140.072 93.0183H140.786C141.504 93.0183 142.031 92.8962 142.365 92.652C142.699 92.4029 142.866 92.0293 142.866 91.5311C142.866 91.0379 142.696 90.6838 142.358 90.4689C142.019 90.2491 141.438 90.1392 140.615 90.1392H140.072V93.0183Z" fill="#F1F1F1"/>
<path d="M145.727 92.989H146.503C147.166 91.5726 147.69 90.1587 148.075 88.7473C148.459 87.3309 148.745 85.8046 148.933 84.1685H154.78V92.989H156.118V98H154.066V94.8791H147.78V98H145.727V92.989ZM150.621 86.0586C150.474 87.177 150.23 88.3614 149.886 89.6117C149.548 90.862 149.166 91.9878 148.74 92.989H152.659V86.0586H150.621Z" fill="#F1F1F1"/>
<path d="M163.448 94.8791H157.669V84.1685H163.448V86.0293H159.797V88.381H163.194V90.2418H159.797V93.0037H163.448V94.8791Z" fill="#F1F1F1"/>
<path d="M167.675 89.2088H168.375C169.03 89.2088 169.519 89.072 169.844 88.7985C170.169 88.5201 170.331 88.1172 170.331 87.5897C170.331 87.0574 170.194 86.6642 169.92 86.4103C169.65 86.1563 169.224 86.0293 168.643 86.0293H167.675V89.2088ZM172.48 87.5092C172.48 88.6618 172.141 89.5433 171.464 90.1538C170.791 90.7643 169.833 91.0696 168.588 91.0696H167.675V94.8791H165.548V84.1685H168.753C169.97 84.1685 170.894 84.4493 171.526 85.011C172.162 85.5678 172.48 86.4005 172.48 87.5092Z" fill="#F1F1F1"/>
<path d="M183.481 89.5092C183.481 91.2821 183.069 92.6447 182.246 93.5971C181.422 94.5495 180.242 95.0256 178.704 95.0256C177.167 95.0256 175.987 94.5495 175.163 93.5971C174.339 92.6447 173.928 91.2772 173.928 89.4945C173.928 87.7118 174.339 86.3516 175.163 85.4139C175.991 84.4713 177.176 84 178.718 84C180.26 84 181.438 84.4737 182.253 85.4212C183.071 86.3687 183.481 87.7314 183.481 89.5092ZM176.158 89.5092C176.158 90.7057 176.371 91.6068 176.796 92.2125C177.222 92.8181 177.858 93.1209 178.704 93.1209C180.402 93.1209 181.251 91.917 181.251 89.5092C181.251 87.0965 180.406 85.8901 178.718 85.8901C177.872 85.8901 177.233 86.1954 176.803 86.8059C176.373 87.4115 176.158 88.3126 176.158 89.5092Z" fill="#F1F1F1"/>
<path d="M185.56 84.1685H188.683C190.106 84.1685 191.138 84.3858 191.778 84.8205C192.424 85.2503 192.746 85.9365 192.746 86.8791C192.746 87.5189 192.604 88.044 192.321 88.4542C192.041 88.8645 191.669 89.1111 191.202 89.1941V89.2674C191.838 89.4188 192.295 89.7021 192.574 90.1172C192.858 90.5324 193 91.0842 193 91.7729C193 92.7497 192.668 93.5116 192.005 94.0586C191.346 94.6056 190.449 94.8791 189.315 94.8791H185.56V84.1685ZM187.688 88.4103H188.923C189.5 88.4103 189.916 88.315 190.172 88.1245C190.433 87.9341 190.564 87.619 190.564 87.1795C190.564 86.7692 190.422 86.4762 190.138 86.3004C189.859 86.1197 189.415 86.0293 188.807 86.0293H187.688V88.4103ZM187.688 90.2125V93.0037H189.074C189.66 93.0037 190.092 92.884 190.371 92.6447C190.651 92.4054 190.79 92.0391 190.79 91.5458C190.79 90.6569 190.195 90.2125 189.006 90.2125H187.688Z" fill="#F1F1F1"/>
<path d="M169.457 76V44.8H183V37H148V44.8H161.654V76H169.457Z" fill="#2194FF"/>
<path fill-rule="evenodd" clip-rule="evenodd" d="M168.75 6.42341C167.613 7.35991 167.311 9.0497 167.842 11.4928C167.717 10.0654 168.322 8.92521 169.657 8.07231C170.545 7.27188 170.848 5.73951 170.566 3.47519C170.329 4.82792 169.723 5.81287 168.75 6.43009V6.42341ZM161.984 28.4645C160.819 27.2743 160.149 25.712 160.102 24.0756C160.055 22.4393 160.634 20.8436 161.73 19.5931C162.811 18.4369 162.996 17.1714 162.283 15.7964C163.347 16.3647 163.865 17.7704 163.836 20.0133C165.578 16.5377 165.508 13.6326 163.625 11.298C164.357 11.4847 165.075 11.7201 165.774 12.0024C165.547 10.7288 165.08 9.64691 164.373 8.75666C162.969 6.10724 163.055 3.18837 164.629 0C163.957 2.06599 164.297 4.02705 165.65 5.88315C166.967 7.76593 167.278 9.92662 166.583 12.3653C170.788 14.4312 172.049 18.1252 170.364 23.4472C171.711 22.5578 172.206 20.9837 171.848 18.7247C173.66 22.0233 173.806 24.7167 172.285 26.805C173.43 25.4698 174.072 23.7999 174.106 22.0678C174.159 19.7981 173.695 17.9923 172.714 16.6502C171.35 15.0494 170.537 13.7086 170.274 12.6281C169.678 8.66328 170.624 5.82665 173.112 4.11818C170.899 6.6084 171.037 9.93284 173.527 14.0915C173.118 11.7569 173.71 10.3259 175.303 9.79855C173.699 10.4327 173.854 13.5783 175.768 19.2356C176.295 21.5597 175.917 23.9895 174.707 26.0624C173.496 28.1354 171.538 29.7067 169.204 30.4773C166.87 31.2479 164.324 31.164 162.05 30.2416C159.777 29.3192 157.934 27.6227 156.873 25.4749C155.385 22.0687 155.8 17.9642 158.118 13.1617C159.658 10.6403 160.452 7.6761 160.501 4.26894C160.235 2.61918 159.674 1.29491 158.818 0.296154C161.487 2.53557 162.914 4.98623 163.098 7.64809C163.288 10.0627 162.655 12.2061 161.197 14.0782C159.217 16.732 158.252 19.7968 158.303 23.2724C158.502 24.3385 158.933 25.3518 159.567 26.2456C160.202 27.1394 161.025 27.8934 161.984 28.4579V28.4645ZM168.456 29.2649C170.385 27.6587 170.509 25.6381 168.828 23.203C167.453 21.3007 166.951 19.5616 167.325 17.9856C164.879 19.257 164.941 23.1203 165.611 26.202C164.903 25.679 163.626 23.1083 163.674 21.8637C161.73 24.8368 161.883 27.3306 164.134 29.345C165.554 29.7007 167.047 29.673 168.452 29.2649H168.456Z" fill="#2194FF"/>
<path d="M314.672 57L317.086 45.5781H319.656C320.464 45.5781 321.117 45.7005 321.617 45.9453C322.117 46.1901 322.482 46.5339 322.711 46.9766C322.94 47.4193 323.055 47.9401 323.055 48.5391C323.055 49.1693 322.948 49.7292 322.734 50.2188C322.526 50.7083 322.214 51.1224 321.797 51.4609C321.38 51.7995 320.862 52.0573 320.242 52.2344C319.628 52.4062 318.914 52.4922 318.102 52.4922H316.938L315.984 57H314.672ZM317.18 51.375H318.305C319.013 51.375 319.62 51.2734 320.125 51.0703C320.635 50.8672 321.026 50.5599 321.297 50.1484C321.573 49.7318 321.711 49.2083 321.711 48.5781C321.711 47.9219 321.526 47.4479 321.156 47.1562C320.786 46.8594 320.224 46.7109 319.469 46.7109H318.172L317.18 51.375ZM326.156 57.1562C325.693 57.1562 325.286 57.0443 324.938 56.8203C324.589 56.5964 324.318 56.2656 324.125 55.8281C323.932 55.3906 323.836 54.8568 323.836 54.2266C323.836 53.5964 323.901 52.9896 324.031 52.4062C324.167 51.8229 324.357 51.2812 324.602 50.7812C324.846 50.2812 325.141 49.8438 325.484 49.4688C325.833 49.0938 326.224 48.8021 326.656 48.5938C327.089 48.3854 327.555 48.2812 328.055 48.2812C328.44 48.2812 328.773 48.3542 329.055 48.5C329.341 48.6458 329.578 48.8385 329.766 49.0781C329.958 49.3125 330.109 49.5625 330.219 49.8281H330.297L330.797 48.4375H331.789L329.977 57H328.938L329.172 55.3438H329.109C328.875 55.6562 328.607 55.9505 328.305 56.2266C328.003 56.5026 327.672 56.7266 327.312 56.8984C326.953 57.0703 326.568 57.1562 326.156 57.1562ZM326.578 56.0781C326.979 56.0781 327.375 55.9323 327.766 55.6406C328.161 55.3438 328.516 54.9453 328.828 54.4453C329.146 53.9401 329.388 53.3724 329.555 52.7422C329.638 52.4349 329.693 52.1536 329.719 51.8984C329.75 51.638 329.766 51.3958 329.766 51.1719C329.766 50.6354 329.622 50.2031 329.336 49.875C329.055 49.5417 328.669 49.375 328.18 49.375C327.831 49.375 327.503 49.4635 327.195 49.6406C326.888 49.8125 326.609 50.0547 326.359 50.3672C326.115 50.6745 325.904 51.0339 325.727 51.4453C325.549 51.8516 325.411 52.2943 325.312 52.7734C325.219 53.2526 325.172 53.7448 325.172 54.25C325.172 54.849 325.294 55.3047 325.539 55.6172C325.784 55.9245 326.13 56.0781 326.578 56.0781ZM336.062 57.1562C335.427 57.1562 334.87 57.0365 334.391 56.7969C333.917 56.5521 333.547 56.1927 333.281 55.7188C333.021 55.2448 332.891 54.6562 332.891 53.9531C332.891 53.3438 332.956 52.7578 333.086 52.1953C333.221 51.6328 333.417 51.1146 333.672 50.6406C333.927 50.1667 334.237 49.7526 334.602 49.3984C334.966 49.0443 335.38 48.7708 335.844 48.5781C336.312 48.3802 336.823 48.2812 337.375 48.2812C337.745 48.2812 338.112 48.3177 338.477 48.3906C338.846 48.4583 339.18 48.5573 339.477 48.6875L339.109 49.7812C338.891 49.6771 338.633 49.5833 338.336 49.5C338.039 49.4167 337.721 49.375 337.383 49.375C336.909 49.375 336.477 49.4948 336.086 49.7344C335.701 49.974 335.367 50.3073 335.086 50.7344C334.81 51.1562 334.596 51.6406 334.445 52.1875C334.294 52.7344 334.219 53.3177 334.219 53.9375C334.219 54.3802 334.297 54.763 334.453 55.0859C334.609 55.4036 334.833 55.6484 335.125 55.8203C335.422 55.9922 335.776 56.0781 336.188 56.0781C336.568 56.0781 336.924 56.026 337.258 55.9219C337.596 55.8177 337.927 55.6927 338.25 55.5469V56.6562C337.964 56.8021 337.635 56.9219 337.266 57.0156C336.901 57.1094 336.5 57.1562 336.062 57.1562ZM339.758 57L341.594 48.3984H342.742L342.539 50.0469H342.555C342.753 49.776 342.99 49.5026 343.266 49.2266C343.547 48.9453 343.872 48.7109 344.242 48.5234C344.617 48.3307 345.042 48.2344 345.516 48.2344C345.974 48.2344 346.367 48.3203 346.695 48.4922C347.023 48.6589 347.276 48.9036 347.453 49.2266C347.63 49.5443 347.719 49.9297 347.719 50.3828C347.719 50.6224 347.701 50.8646 347.664 51.1094C347.628 51.3542 347.589 51.5729 347.547 51.7656L346.406 57H345.023L346.18 51.5938C346.227 51.3594 346.263 51.1589 346.289 50.9922C346.32 50.8255 346.336 50.6693 346.336 50.5234C346.336 50.1589 346.237 49.8828 346.039 49.6953C345.841 49.5078 345.549 49.4141 345.164 49.4141C344.784 49.4141 344.383 49.5443 343.961 49.8047C343.539 50.0651 343.148 50.4766 342.789 51.0391C342.43 51.5964 342.151 52.3255 341.953 53.2266L341.148 57H339.758ZM348.234 60.8281L350.852 48.4375H351.914L351.703 50.1016H351.758C352.003 49.7786 352.271 49.4818 352.562 49.2109C352.859 48.9349 353.182 48.7135 353.531 48.5469C353.885 48.3802 354.271 48.2969 354.688 48.2969C355.156 48.2969 355.565 48.4089 355.914 48.6328C356.263 48.8516 356.534 49.1797 356.727 49.6172C356.924 50.0495 357.023 50.5885 357.023 51.2344C357.023 51.849 356.961 52.4479 356.836 53.0312C356.716 53.6094 356.539 54.1484 356.305 54.6484C356.07 55.1432 355.781 55.5807 355.438 55.9609C355.099 56.3359 354.711 56.6302 354.273 56.8438C353.836 57.0521 353.354 57.1562 352.828 57.1562C352.427 57.1562 352.081 57.0859 351.789 56.9453C351.503 56.7995 351.26 56.6094 351.062 56.375C350.87 56.1406 350.716 55.888 350.602 55.6172H350.531C350.51 55.8099 350.477 56.0625 350.43 56.375C350.388 56.6823 350.344 56.9401 350.297 57.1484L349.516 60.8281H348.234ZM352.734 56.0781C353.099 56.0781 353.432 55.987 353.734 55.8047C354.042 55.6224 354.315 55.375 354.555 55.0625C354.799 54.7448 355.005 54.3776 355.172 53.9609C355.344 53.5443 355.474 53.1016 355.562 52.6328C355.651 52.1641 355.695 51.6875 355.695 51.2031C355.695 50.599 355.573 50.1432 355.328 49.8359C355.089 49.5286 354.729 49.375 354.25 49.375C354 49.375 353.747 49.4375 353.492 49.5625C353.237 49.6823 352.99 49.8542 352.75 50.0781C352.51 50.2969 352.286 50.5573 352.078 50.8594C351.87 51.1615 351.688 51.4948 351.531 51.8594C351.38 52.224 351.26 52.6094 351.172 53.0156C351.083 53.4219 351.039 53.8385 351.039 54.2656C351.039 54.8125 351.177 55.2526 351.453 55.5859C351.734 55.9141 352.161 56.0781 352.734 56.0781ZM360.922 57.1562C360.458 57.1562 360.052 57.0443 359.703 56.8203C359.354 56.5964 359.083 56.2656 358.891 55.8281C358.698 55.3906 358.602 54.8568 358.602 54.2266C358.602 53.5964 358.667 52.9896 358.797 52.4062C358.932 51.8229 359.122 51.2812 359.367 50.7812C359.612 50.2812 359.906 49.8438 360.25 49.4688C360.599 49.0938 360.99 48.8021 361.422 48.5938C361.854 48.3854 362.32 48.2812 362.82 48.2812C363.206 48.2812 363.539 48.3542 363.82 48.5C364.107 48.6458 364.344 48.8385 364.531 49.0781C364.724 49.3125 364.875 49.5625 364.984 49.8281H365.062L365.562 48.4375H366.555L364.742 57H363.703L363.938 55.3438H363.875C363.641 55.6562 363.372 55.9505 363.07 56.2266C362.768 56.5026 362.438 56.7266 362.078 56.8984C361.719 57.0703 361.333 57.1562 360.922 57.1562ZM361.344 56.0781C361.745 56.0781 362.141 55.9323 362.531 55.6406C362.927 55.3438 363.281 54.9453 363.594 54.4453C363.911 53.9401 364.154 53.3724 364.32 52.7422C364.404 52.4349 364.458 52.1536 364.484 51.8984C364.516 51.638 364.531 51.3958 364.531 51.1719C364.531 50.6354 364.388 50.2031 364.102 49.875C363.82 49.5417 363.435 49.375 362.945 49.375C362.596 49.375 362.268 49.4635 361.961 49.6406C361.654 49.8125 361.375 50.0547 361.125 50.3672C360.88 50.6745 360.669 51.0339 360.492 51.4453C360.315 51.8516 360.177 52.2943 360.078 52.7734C359.984 53.2526 359.938 53.7448 359.938 54.25C359.938 54.849 360.06 55.3047 360.305 55.6172C360.549 55.9245 360.896 56.0781 361.344 56.0781ZM370.992 57.1562C370.221 57.1562 369.591 57.013 369.102 56.7266C368.612 56.4349 368.25 56.026 368.016 55.5C367.781 54.974 367.664 54.3568 367.664 53.6484C367.664 53.0443 367.729 52.474 367.859 51.9375C367.99 51.401 368.18 50.9115 368.43 50.4688C368.685 50.0208 368.995 49.6354 369.359 49.3125C369.729 48.9896 370.148 48.7396 370.617 48.5625C371.091 48.3854 371.612 48.2969 372.18 48.2969C372.779 48.2969 373.286 48.3802 373.703 48.5469C374.12 48.7083 374.435 48.9479 374.648 49.2656C374.867 49.5781 374.977 49.9661 374.977 50.4297C374.977 50.8464 374.883 51.2057 374.695 51.5078C374.508 51.8047 374.247 52.0495 373.914 52.2422C373.586 52.4297 373.206 52.5677 372.773 52.6562V52.6875C373.263 52.8021 373.659 52.9974 373.961 53.2734C374.268 53.5443 374.422 53.9583 374.422 54.5156C374.422 54.9115 374.312 55.3151 374.094 55.7266C373.875 56.1328 373.516 56.474 373.016 56.75C372.516 57.0208 371.841 57.1562 370.992 57.1562ZM371.086 56.0938C371.565 56.0938 371.958 56.0208 372.266 55.875C372.573 55.724 372.799 55.526 372.945 55.2812C373.091 55.0365 373.164 54.776 373.164 54.5C373.164 54.224 373.091 53.9948 372.945 53.8125C372.799 53.625 372.573 53.4844 372.266 53.3906C371.958 53.2969 371.557 53.25 371.062 53.25H368.992C368.992 53.3021 368.99 53.3672 368.984 53.4453C368.984 53.5234 368.984 53.6042 368.984 53.6875C368.984 54.5208 369.172 55.1302 369.547 55.5156C369.922 55.901 370.435 56.0938 371.086 56.0938ZM369.141 52.1875H370.836C371.336 52.1875 371.799 52.138 372.227 52.0391C372.659 51.9401 373.008 51.7734 373.273 51.5391C373.539 51.2995 373.672 50.974 373.672 50.5625C373.672 50.2344 373.557 49.9557 373.328 49.7266C373.104 49.4922 372.724 49.375 372.188 49.375C371.672 49.375 371.208 49.487 370.797 49.7109C370.385 49.9349 370.039 50.2578 369.758 50.6797C369.477 51.0964 369.271 51.599 369.141 52.1875ZM379.297 57.1562C378.693 57.1562 378.177 57.0651 377.75 56.8828C377.328 56.6953 377.008 56.4193 376.789 56.0547C376.57 55.6849 376.461 55.2266 376.461 54.6797C376.461 54.4453 376.479 54.1901 376.516 53.9141C376.557 53.6328 376.604 53.3698 376.656 53.125L377.648 48.4375H378.961L378.133 52.1953C378.414 52.1432 378.719 52.0964 379.047 52.0547C379.375 52.013 379.714 51.9922 380.062 51.9922C380.708 51.9922 381.229 52.0885 381.625 52.2812C382.021 52.474 382.31 52.7396 382.492 53.0781C382.68 53.4167 382.773 53.8099 382.773 54.2578C382.773 54.7734 382.646 55.2526 382.391 55.6953C382.135 56.1328 381.75 56.487 381.234 56.7578C380.719 57.0234 380.073 57.1562 379.297 57.1562ZM379.414 56.0938C379.773 56.0938 380.083 56.0495 380.344 55.9609C380.604 55.8672 380.818 55.7396 380.984 55.5781C381.156 55.4167 381.281 55.2318 381.359 55.0234C381.443 54.8099 381.484 54.5859 381.484 54.3516C381.484 54.0911 381.43 53.8646 381.32 53.6719C381.211 53.4792 381.029 53.3307 380.773 53.2266C380.523 53.1172 380.185 53.0625 379.758 53.0625C379.419 53.0625 379.094 53.0807 378.781 53.1172C378.474 53.1484 378.19 53.1901 377.93 53.2422C377.862 53.5443 377.815 53.8021 377.789 54.0156C377.763 54.224 377.75 54.4115 377.75 54.5781C377.75 55.0208 377.87 55.3854 378.109 55.6719C378.349 55.9531 378.784 56.0938 379.414 56.0938ZM388.336 57L390.172 48.3984H391.32L391.117 50.0469H391.133C391.331 49.776 391.568 49.5026 391.844 49.2266C392.125 48.9453 392.451 48.7109 392.82 48.5234C393.195 48.3307 393.62 48.2344 394.094 48.2344C394.552 48.2344 394.945 48.3203 395.273 48.4922C395.602 48.6589 395.854 48.9036 396.031 49.2266C396.208 49.5443 396.297 49.9297 396.297 50.3828C396.297 50.6224 396.279 50.8646 396.242 51.1094C396.206 51.3542 396.167 51.5729 396.125 51.7656L394.984 57H393.602L394.758 51.5938C394.805 51.3594 394.841 51.1589 394.867 50.9922C394.898 50.8255 394.914 50.6693 394.914 50.5234C394.914 50.1589 394.815 49.8828 394.617 49.6953C394.419 49.5078 394.128 49.4141 393.742 49.4141C393.362 49.4141 392.961 49.5443 392.539 49.8047C392.117 50.0651 391.727 50.4766 391.367 51.0391C391.008 51.5964 390.729 52.3255 390.531 53.2266L389.727 57H388.336ZM397.086 57.1016C396.956 57.1016 396.833 57.0885 396.719 57.0625C396.604 57.0417 396.516 57.0208 396.453 57V55.875C396.526 55.9062 396.607 55.9297 396.695 55.9453C396.779 55.9609 396.87 55.9688 396.969 55.9688C397.229 55.9688 397.461 55.9062 397.664 55.7812C397.867 55.6562 398.055 55.4583 398.227 55.1875C398.404 54.9167 398.578 54.5625 398.75 54.125C398.927 53.6875 399.12 53.1562 399.328 52.5312C399.573 51.8177 399.807 51.1979 400.031 50.6719C400.26 50.1458 400.516 49.7135 400.797 49.375C401.083 49.0312 401.43 48.776 401.836 48.6094C402.247 48.4427 402.758 48.3594 403.367 48.3594C403.716 48.3594 404.052 48.3828 404.375 48.4297C404.698 48.4766 404.995 48.5365 405.266 48.6094L403.469 57H402.156L403.781 49.5234C403.708 49.5078 403.617 49.4948 403.508 49.4844C403.404 49.4688 403.289 49.4609 403.164 49.4609C402.711 49.4609 402.341 49.5651 402.055 49.7734C401.773 49.9766 401.516 50.3333 401.281 50.8438C401.052 51.349 400.781 52.0573 400.469 52.9688C400.234 53.651 400.008 54.25 399.789 54.7656C399.576 55.2812 399.346 55.7135 399.102 56.0625C398.862 56.4062 398.578 56.6667 398.25 56.8438C397.927 57.0156 397.539 57.1016 397.086 57.1016ZM409.664 57.1562C409.023 57.1562 408.471 57.0286 408.008 56.7734C407.544 56.513 407.188 56.1432 406.938 55.6641C406.693 55.1797 406.57 54.6016 406.57 53.9297C406.57 53.237 406.669 52.5573 406.867 51.8906C407.07 51.2188 407.359 50.612 407.734 50.0703C408.109 49.5234 408.56 49.0885 409.086 48.7656C409.617 48.4427 410.211 48.2812 410.867 48.2812C411.654 48.2812 412.25 48.4583 412.656 48.8125C413.062 49.1615 413.266 49.6432 413.266 50.2578C413.266 50.6901 413.164 51.0885 412.961 51.4531C412.763 51.8177 412.456 52.1354 412.039 52.4062C411.628 52.6719 411.104 52.8802 410.469 53.0312C409.839 53.1771 409.091 53.25 408.227 53.25H407.93C407.919 53.3438 407.909 53.4479 407.898 53.5625C407.893 53.6771 407.891 53.7839 407.891 53.8828C407.891 54.5703 408.057 55.1094 408.391 55.5C408.724 55.8854 409.224 56.0781 409.891 56.0781C410.302 56.0781 410.69 56.0208 411.055 55.9062C411.424 55.7865 411.81 55.6302 412.211 55.4375V56.5547C411.826 56.7318 411.438 56.8776 411.047 56.9922C410.656 57.1016 410.195 57.1562 409.664 57.1562ZM408.117 52.1875H408.305C408.971 52.1875 409.583 52.1302 410.141 52.0156C410.698 51.8958 411.146 51.7031 411.484 51.4375C411.823 51.1667 411.992 50.8073 411.992 50.3594C411.992 50.0677 411.893 49.8281 411.695 49.6406C411.497 49.4531 411.195 49.3594 410.789 49.3594C410.43 49.3594 410.076 49.4714 409.727 49.6953C409.378 49.9141 409.06 50.2344 408.773 50.6562C408.492 51.0781 408.273 51.5885 408.117 52.1875ZM419 57L419.523 54.5C419.596 54.1198 419.68 53.7578 419.773 53.4141C419.872 53.0651 419.961 52.7578 420.039 52.4922H419.984C419.776 52.7786 419.531 53.0391 419.25 53.2734C418.969 53.5078 418.654 53.6953 418.305 53.8359C417.956 53.9714 417.573 54.0391 417.156 54.0391C416.688 54.0391 416.292 53.9583 415.969 53.7969C415.651 53.6302 415.409 53.3854 415.242 53.0625C415.081 52.7396 415 52.3438 415 51.875C415 51.6719 415.018 51.4427 415.055 51.1875C415.091 50.9323 415.133 50.6745 415.18 50.4141L415.609 48.4375H416.914L416.484 50.5234C416.422 50.7995 416.375 51.0312 416.344 51.2188C416.318 51.4062 416.305 51.5833 416.305 51.75C416.305 52.1927 416.411 52.5026 416.625 52.6797C416.844 52.8568 417.141 52.9453 417.516 52.9453C417.911 52.9453 418.312 52.8385 418.719 52.625C419.125 52.4062 419.497 52.0365 419.836 51.5156C420.18 50.9948 420.451 50.2812 420.648 49.375L420.844 48.4375H422.141L420.32 57H419ZM425.695 57.1562C425.263 57.1562 424.885 57.0755 424.562 56.9141C424.24 56.7526 423.99 56.5156 423.812 56.2031C423.641 55.8854 423.555 55.4974 423.555 55.0391C423.555 54.8099 423.57 54.5885 423.602 54.375C423.638 54.1562 423.677 53.9297 423.719 53.6953L424.852 48.4375H426.164L425 53.8438C424.958 54.0677 424.924 54.2682 424.898 54.4453C424.878 54.6172 424.867 54.7708 424.867 54.9062C424.867 55.276 424.961 55.5651 425.148 55.7734C425.341 55.9766 425.646 56.0781 426.062 56.0781C426.453 56.0781 426.862 55.9453 427.289 55.6797C427.721 55.4141 428.12 54.9974 428.484 54.4297C428.854 53.8568 429.135 53.1146 429.328 52.2031L430.125 48.4375H431.406L429.594 57H428.523L428.734 55.3438H428.664C428.466 55.6146 428.227 55.8906 427.945 56.1719C427.664 56.4479 427.339 56.6823 426.969 56.875C426.599 57.0625 426.174 57.1562 425.695 57.1562ZM318.117 75.1562C317.346 75.1562 316.716 75.013 316.227 74.7266C315.737 74.4349 315.375 74.026 315.141 73.5C314.906 72.974 314.789 72.3568 314.789 71.6484C314.789 71.0443 314.854 70.474 314.984 69.9375C315.115 69.401 315.305 68.9115 315.555 68.4688C315.81 68.0208 316.12 67.6354 316.484 67.3125C316.854 66.9896 317.273 66.7396 317.742 66.5625C318.216 66.3854 318.737 66.2969 319.305 66.2969C319.904 66.2969 320.411 66.3802 320.828 66.5469C321.245 66.7083 321.56 66.9479 321.773 67.2656C321.992 67.5781 322.102 67.9661 322.102 68.4297C322.102 68.8464 322.008 69.2057 321.82 69.5078C321.633 69.8047 321.372 70.0495 321.039 70.2422C320.711 70.4297 320.331 70.5677 319.898 70.6562V70.6875C320.388 70.8021 320.784 70.9974 321.086 71.2734C321.393 71.5443 321.547 71.9583 321.547 72.5156C321.547 72.9115 321.438 73.3151 321.219 73.7266C321 74.1328 320.641 74.474 320.141 74.75C319.641 75.0208 318.966 75.1562 318.117 75.1562ZM318.211 74.0938C318.69 74.0938 319.083 74.0208 319.391 73.875C319.698 73.724 319.924 73.526 320.07 73.2812C320.216 73.0365 320.289 72.776 320.289 72.5C320.289 72.224 320.216 71.9948 320.07 71.8125C319.924 71.625 319.698 71.4844 319.391 71.3906C319.083 71.2969 318.682 71.25 318.188 71.25H316.117C316.117 71.3021 316.115 71.3672 316.109 71.4453C316.109 71.5234 316.109 71.6042 316.109 71.6875C316.109 72.5208 316.297 73.1302 316.672 73.5156C317.047 73.901 317.56 74.0938 318.211 74.0938ZM316.266 70.1875H317.961C318.461 70.1875 318.924 70.138 319.352 70.0391C319.784 69.9401 320.133 69.7734 320.398 69.5391C320.664 69.2995 320.797 68.974 320.797 68.5625C320.797 68.2344 320.682 67.9557 320.453 67.7266C320.229 67.4922 319.849 67.375 319.312 67.375C318.797 67.375 318.333 67.487 317.922 67.7109C317.51 67.9349 317.164 68.2578 316.883 68.6797C316.602 69.0964 316.396 69.599 316.266 70.1875ZM327.203 75L329.023 66.4375H330.086L329.883 68.0938H329.961C330.148 67.8229 330.375 67.5495 330.641 67.2734C330.906 66.9922 331.214 66.7578 331.562 66.5703C331.917 66.3776 332.318 66.2812 332.766 66.2812C333.37 66.2812 333.828 66.4557 334.141 66.8047C334.453 67.1536 334.635 67.6302 334.688 68.2344H334.742C334.951 67.9167 335.201 67.6094 335.492 67.3125C335.784 67.0104 336.115 66.763 336.484 66.5703C336.859 66.3776 337.271 66.2812 337.719 66.2812C338.38 66.2812 338.891 66.4609 339.25 66.8203C339.609 67.1797 339.789 67.7005 339.789 68.3828C339.789 68.6276 339.773 68.8594 339.742 69.0781C339.716 69.2969 339.674 69.5208 339.617 69.75L338.508 75H337.195L338.352 69.6094C338.398 69.375 338.432 69.1719 338.453 69C338.479 68.8281 338.492 68.6641 338.492 68.5078C338.492 68.1589 338.398 67.8828 338.211 67.6797C338.023 67.4766 337.734 67.375 337.344 67.375C337.068 67.375 336.781 67.4505 336.484 67.6016C336.188 67.7526 335.898 67.9818 335.617 68.2891C335.341 68.5911 335.091 68.974 334.867 69.4375C334.643 69.901 334.464 70.4453 334.328 71.0703L333.492 75H332.195L333.336 69.6328C333.383 69.3932 333.417 69.1875 333.438 69.0156C333.464 68.8385 333.477 68.6875 333.477 68.5625C333.477 68.1927 333.391 67.9036 333.219 67.6953C333.047 67.4818 332.766 67.375 332.375 67.375C332.099 67.375 331.81 67.4479 331.508 67.5938C331.211 67.7396 330.922 67.9688 330.641 68.2812C330.359 68.5938 330.102 68.9922 329.867 69.4766C329.633 69.9609 329.445 70.5443 329.305 71.2266L328.508 75H327.203ZM344.586 75.1562C343.945 75.1562 343.393 75.0286 342.93 74.7734C342.466 74.513 342.109 74.1432 341.859 73.6641C341.615 73.1797 341.492 72.6016 341.492 71.9297C341.492 71.237 341.591 70.5573 341.789 69.8906C341.992 69.2188 342.281 68.612 342.656 68.0703C343.031 67.5234 343.482 67.0885 344.008 66.7656C344.539 66.4427 345.133 66.2812 345.789 66.2812C346.576 66.2812 347.172 66.4583 347.578 66.8125C347.984 67.1615 348.188 67.6432 348.188 68.2578C348.188 68.6901 348.086 69.0885 347.883 69.4531C347.685 69.8177 347.378 70.1354 346.961 70.4062C346.549 70.6719 346.026 70.8802 345.391 71.0312C344.76 71.1771 344.013 71.25 343.148 71.25H342.852C342.841 71.3438 342.831 71.4479 342.82 71.5625C342.815 71.6771 342.812 71.7839 342.812 71.8828C342.812 72.5703 342.979 73.1094 343.312 73.5C343.646 73.8854 344.146 74.0781 344.812 74.0781C345.224 74.0781 345.612 74.0208 345.977 73.9062C346.346 73.7865 346.732 73.6302 347.133 73.4375V74.5547C346.747 74.7318 346.359 74.8776 345.969 74.9922C345.578 75.1016 345.117 75.1562 344.586 75.1562ZM343.039 70.1875H343.227C343.893 70.1875 344.505 70.1302 345.062 70.0156C345.62 69.8958 346.068 69.7031 346.406 69.4375C346.745 69.1667 346.914 68.8073 346.914 68.3594C346.914 68.0677 346.815 67.8281 346.617 67.6406C346.419 67.4531 346.117 67.3594 345.711 67.3594C345.352 67.3594 344.997 67.4714 344.648 67.6953C344.299 67.9141 343.982 68.2344 343.695 68.6562C343.414 69.0781 343.195 69.5885 343.039 70.1875ZM349.07 75L350.906 66.3984H352.055L351.852 68.0469H351.867C352.065 67.776 352.302 67.5026 352.578 67.2266C352.859 66.9453 353.185 66.7109 353.555 66.5234C353.93 66.3307 354.354 66.2344 354.828 66.2344C355.286 66.2344 355.68 66.3203 356.008 66.4922C356.336 66.6589 356.589 66.9036 356.766 67.2266C356.943 67.5443 357.031 67.9297 357.031 68.3828C357.031 68.6224 357.013 68.8646 356.977 69.1094C356.94 69.3542 356.901 69.5729 356.859 69.7656L355.719 75H354.336L355.492 69.5938C355.539 69.3594 355.576 69.1589 355.602 68.9922C355.633 68.8255 355.648 68.6693 355.648 68.5234C355.648 68.1589 355.549 67.8828 355.352 67.6953C355.154 67.5078 354.862 67.4141 354.477 67.4141C354.096 67.4141 353.695 67.5443 353.273 67.8047C352.852 68.0651 352.461 68.4766 352.102 69.0391C351.742 69.5964 351.464 70.3255 351.266 71.2266L350.461 75H349.07ZM357.82 75.1016C357.69 75.1016 357.568 75.0885 357.453 75.0625C357.339 75.0417 357.25 75.0208 357.188 75V73.875C357.26 73.9062 357.341 73.9297 357.43 73.9453C357.513 73.9609 357.604 73.9688 357.703 73.9688C357.964 73.9688 358.195 73.9062 358.398 73.7812C358.602 73.6562 358.789 73.4583 358.961 73.1875C359.138 72.9167 359.312 72.5625 359.484 72.125C359.661 71.6875 359.854 71.1562 360.062 70.5312C360.307 69.8177 360.542 69.1979 360.766 68.6719C360.995 68.1458 361.25 67.7135 361.531 67.375C361.818 67.0312 362.164 66.776 362.57 66.6094C362.982 66.4427 363.492 66.3594 364.102 66.3594C364.451 66.3594 364.786 66.3828 365.109 66.4297C365.432 66.4766 365.729 66.5365 366 66.6094L364.203 75H362.891L364.516 67.5234C364.443 67.5078 364.352 67.4948 364.242 67.4844C364.138 67.4688 364.023 67.4609 363.898 67.4609C363.445 67.4609 363.076 67.5651 362.789 67.7734C362.508 67.9766 362.25 68.3333 362.016 68.8438C361.786 69.349 361.516 70.0573 361.203 70.9688C360.969 71.651 360.742 72.25 360.523 72.7656C360.31 73.2812 360.081 73.7135 359.836 74.0625C359.596 74.4062 359.312 74.6667 358.984 74.8438C358.661 75.0156 358.273 75.1016 357.82 75.1016ZM370.461 75.125C369.805 75.125 369.24 74.9922 368.766 74.7266C368.292 74.4557 367.927 74.0755 367.672 73.5859C367.422 73.0911 367.297 72.5078 367.297 71.8359C367.297 71.2943 367.357 70.7604 367.477 70.2344C367.596 69.7031 367.773 69.2031 368.008 68.7344C368.242 68.2604 368.531 67.8438 368.875 67.4844C369.224 67.1198 369.625 66.8359 370.078 66.6328C370.531 66.4245 371.036 66.3203 371.594 66.3203C372.26 66.3203 372.828 66.4557 373.297 66.7266C373.771 66.9922 374.133 67.3724 374.383 67.8672C374.638 68.362 374.766 68.9479 374.766 69.625C374.766 70.1562 374.706 70.6849 374.586 71.2109C374.471 71.737 374.297 72.237 374.062 72.7109C373.833 73.1797 373.544 73.5964 373.195 73.9609C372.852 74.3203 372.451 74.6042 371.992 74.8125C371.539 75.0208 371.029 75.125 370.461 75.125ZM370.539 74.0469C370.862 74.0469 371.169 73.9792 371.461 73.8438C371.753 73.7083 372.018 73.513 372.258 73.2578C372.497 72.9974 372.703 72.6823 372.875 72.3125C373.052 71.9375 373.188 71.513 373.281 71.0391C373.38 70.5651 373.43 70.0443 373.43 69.4766C373.43 69.138 373.37 68.8099 373.25 68.4922C373.13 68.1745 372.938 67.9141 372.672 67.7109C372.406 67.5026 372.052 67.3984 371.609 67.3984C371.245 67.3984 370.906 67.474 370.594 67.625C370.286 67.776 370.01 67.9896 369.766 68.2656C369.521 68.5417 369.312 68.8672 369.141 69.2422C368.974 69.6172 368.844 70.0286 368.75 70.4766C368.661 70.9245 368.617 71.3958 368.617 71.8906C368.617 72.5729 368.784 73.1042 369.117 73.4844C369.451 73.8594 369.924 74.0469 370.539 74.0469ZM376 75L377.805 66.4531H379.492L380.445 73.3672H380.477L384.344 66.4531H386.164L384.375 75H383.188L384.266 69.9141C384.359 69.5339 384.453 69.1536 384.547 68.7734C384.641 68.388 384.729 68.0286 384.812 67.6953H384.781L380.672 75H379.641L378.617 67.7031H378.57C378.534 67.9948 378.479 68.3464 378.406 68.7578C378.333 69.1641 378.255 69.5599 378.172 69.9453L377.141 75H376ZM394.367 75.1562C393.753 75.1562 393.237 75.026 392.82 74.7656C392.404 74.5052 392.089 74.1406 391.875 73.6719C391.667 73.2031 391.562 72.6589 391.562 72.0391C391.562 71.5391 391.617 71.0391 391.727 70.5391C391.836 70.0339 392 69.5573 392.219 69.1094C392.438 68.6615 392.706 68.263 393.023 67.9141C393.346 67.5651 393.716 67.2917 394.133 67.0938C394.555 66.8906 395.026 66.7891 395.547 66.7891C395.979 66.7891 396.341 66.8568 396.633 66.9922C396.924 67.1224 397.167 67.2969 397.359 67.5156C397.552 67.7344 397.706 67.9688 397.82 68.2188H397.867C397.878 68.1302 397.883 68.0391 397.883 67.9453C397.883 67.8464 397.883 67.7578 397.883 67.6797C397.883 66.3568 397.706 65.375 397.352 64.7344C396.997 64.0885 396.451 63.7656 395.711 63.7656C395.435 63.7656 395.146 63.7995 394.844 63.8672C394.542 63.9297 394.271 64.0156 394.031 64.125L393.703 63.1484C393.964 63.0234 394.294 62.9141 394.695 62.8203C395.096 62.7266 395.487 62.6797 395.867 62.6797C396.638 62.6797 397.268 62.8672 397.758 63.2422C398.247 63.6172 398.609 64.1719 398.844 64.9062C399.078 65.6354 399.195 66.5312 399.195 67.5938C399.195 68.1302 399.154 68.6875 399.07 69.2656C398.992 69.8438 398.87 70.4167 398.703 70.9844C398.536 71.5469 398.323 72.0807 398.062 72.5859C397.802 73.0859 397.492 73.5286 397.133 73.9141C396.779 74.2995 396.37 74.6042 395.906 74.8281C395.448 75.0469 394.935 75.1562 394.367 75.1562ZM394.5 74.0625C394.828 74.0625 395.133 73.987 395.414 73.8359C395.695 73.6797 395.953 73.4635 396.188 73.1875C396.422 72.9115 396.633 72.5911 396.82 72.2266C397.008 71.8568 397.169 71.4557 397.305 71.0234C397.44 70.5911 397.549 70.1432 397.633 69.6797C397.534 69.3307 397.393 69.0156 397.211 68.7344C397.034 68.4531 396.818 68.2292 396.562 68.0625C396.307 67.8906 396.008 67.8047 395.664 67.8047C395.362 67.8047 395.073 67.875 394.797 68.0156C394.521 68.1562 394.266 68.3542 394.031 68.6094C393.802 68.8646 393.602 69.1667 393.43 69.5156C393.258 69.8646 393.122 70.25 393.023 70.6719C392.93 71.0938 392.883 71.5417 392.883 72.0156C392.883 72.599 393.01 73.0859 393.266 73.4766C393.521 73.8672 393.932 74.0625 394.5 74.0625ZM403.742 75.125C403.086 75.125 402.521 74.9922 402.047 74.7266C401.573 74.4557 401.208 74.0755 400.953 73.5859C400.703 73.0911 400.578 72.5078 400.578 71.8359C400.578 71.2943 400.638 70.7604 400.758 70.2344C400.878 69.7031 401.055 69.2031 401.289 68.7344C401.523 68.2604 401.812 67.8438 402.156 67.4844C402.505 67.1198 402.906 66.8359 403.359 66.6328C403.812 66.4245 404.318 66.3203 404.875 66.3203C405.542 66.3203 406.109 66.4557 406.578 66.7266C407.052 66.9922 407.414 67.3724 407.664 67.8672C407.919 68.362 408.047 68.9479 408.047 69.625C408.047 70.1562 407.987 70.6849 407.867 71.2109C407.753 71.737 407.578 72.237 407.344 72.7109C407.115 73.1797 406.826 73.5964 406.477 73.9609C406.133 74.3203 405.732 74.6042 405.273 74.8125C404.82 75.0208 404.31 75.125 403.742 75.125ZM403.82 74.0469C404.143 74.0469 404.451 73.9792 404.742 73.8438C405.034 73.7083 405.299 73.513 405.539 73.2578C405.779 72.9974 405.984 72.6823 406.156 72.3125C406.333 71.9375 406.469 71.513 406.562 71.0391C406.661 70.5651 406.711 70.0443 406.711 69.4766C406.711 69.138 406.651 68.8099 406.531 68.4922C406.411 68.1745 406.219 67.9141 405.953 67.7109C405.688 67.5026 405.333 67.3984 404.891 67.3984C404.526 67.3984 404.188 67.474 403.875 67.625C403.568 67.776 403.292 67.9896 403.047 68.2656C402.802 68.5417 402.594 68.8672 402.422 69.2422C402.255 69.6172 402.125 70.0286 402.031 70.4766C401.943 70.9245 401.898 71.3958 401.898 71.8906C401.898 72.5729 402.065 73.1042 402.398 73.4844C402.732 73.8594 403.206 74.0469 403.82 74.0469ZM409.281 75L411.086 66.4531H412.773L413.727 73.3672H413.758L417.625 66.4531H419.445L417.656 75H416.469L417.547 69.9141C417.641 69.5339 417.734 69.1536 417.828 68.7734C417.922 68.388 418.01 68.0286 418.094 67.6953H418.062L413.953 75H412.922L411.898 67.7031H411.852C411.815 67.9948 411.76 68.3464 411.688 68.7578C411.615 69.1641 411.536 69.5599 411.453 69.9453L410.422 75H409.281ZM423.789 75.1562C423.148 75.1562 422.596 75.0286 422.133 74.7734C421.669 74.513 421.312 74.1432 421.062 73.6641C420.818 73.1797 420.695 72.6016 420.695 71.9297C420.695 71.237 420.794 70.5573 420.992 69.8906C421.195 69.2188 421.484 68.612 421.859 68.0703C422.234 67.5234 422.685 67.0885 423.211 66.7656C423.742 66.4427 424.336 66.2812 424.992 66.2812C425.779 66.2812 426.375 66.4583 426.781 66.8125C427.188 67.1615 427.391 67.6432 427.391 68.2578C427.391 68.6901 427.289 69.0885 427.086 69.4531C426.888 69.8177 426.581 70.1354 426.164 70.4062C425.753 70.6719 425.229 70.8802 424.594 71.0312C423.964 71.1771 423.216 71.25 422.352 71.25H422.055C422.044 71.3438 422.034 71.4479 422.023 71.5625C422.018 71.6771 422.016 71.7839 422.016 71.8828C422.016 72.5703 422.182 73.1094 422.516 73.5C422.849 73.8854 423.349 74.0781 424.016 74.0781C424.427 74.0781 424.815 74.0208 425.18 73.9062C425.549 73.7865 425.935 73.6302 426.336 73.4375V74.5547C425.951 74.7318 425.562 74.8776 425.172 74.9922C424.781 75.1016 424.32 75.1562 423.789 75.1562ZM422.242 70.1875H422.43C423.096 70.1875 423.708 70.1302 424.266 70.0156C424.823 69.8958 425.271 69.7031 425.609 69.4375C425.948 69.1667 426.117 68.8073 426.117 68.3594C426.117 68.0677 426.018 67.8281 425.82 67.6406C425.622 67.4531 425.32 67.3594 424.914 67.3594C424.555 67.3594 424.201 67.4714 423.852 67.6953C423.503 67.9141 423.185 68.2344 422.898 68.6562C422.617 69.0781 422.398 69.5885 422.242 70.1875Z" fill="#2194FF"/>
<line x1="293.5" y1="43" x2="293.5" y2="76" stroke="white"/>
</svg>
