<svg width="76" height="23" viewBox="0 0 76 23" fill="none" xmlns="http://www.w3.org/2000/svg">
<g opacity="0.4" clip-path="url(#clip0_24204_6)">
<path d="M7.93817 4.14382C8.29412 4.14382 8.5827 3.85524 8.5827 3.49929V2.20142C8.5827 1.84546 8.29412 1.55688 7.93817 1.55688C7.58222 1.55688 7.29364 1.84546 7.29364 2.20142V3.49929C7.29364 3.85524 7.58222 4.14382 7.93817 4.14382Z" fill="#F1F1F1"/>
<path d="M2.09091 6.5046L0.966887 5.85564C0.658586 5.67758 0.26439 5.78329 0.0864564 6.09154C-0.0915203 6.39985 0.014097 6.79404 0.322355 6.97198L1.44638 7.62093C1.75395 7.79857 2.14844 7.69402 2.32681 7.38504C2.50478 7.07673 2.39916 6.68254 2.09091 6.5046Z" fill="#F1F1F1"/>
<path d="M1.44637 13.6314L0.32235 14.2803C-0.246556 14.6087 -0.0129782 15.4831 0.645217 15.4831C0.937276 15.4831 1.01105 15.342 2.09086 14.7477C2.39912 14.5697 2.50473 14.1756 2.32676 13.8673C2.14882 13.559 1.75471 13.4533 1.44637 13.6314Z" fill="#F1F1F1"/>
<path d="M14.4299 7.62092L15.5539 6.97197C15.8622 6.79399 15.9678 6.39984 15.7898 6.09154C15.6119 5.78329 15.2177 5.67758 14.9094 5.85564L13.7854 6.5046C13.4771 6.68258 13.3715 7.07673 13.5495 7.38503C13.7283 7.69483 14.1231 7.79813 14.4299 7.62092Z" fill="#F1F1F1"/>
<path d="M6.63545 12.2589C7.11382 9.63717 9.2253 7.62895 11.8611 7.2831C10.9147 6.17338 9.50726 5.4684 7.93813 5.4684C5.09497 5.4684 2.78192 7.78232 2.78192 10.6265C2.78192 11.9849 3.30979 13.2221 4.17084 14.1442C4.76695 13.2691 5.63702 12.6013 6.63545 12.2589Z" fill="#F1F1F1"/>
<path d="M17.1405 11.5418C16.4106 9.73757 14.6417 8.52026 12.6587 8.52026C9.9997 8.52026 7.85337 10.6637 7.82527 13.3068C5.99458 13.5077 4.60205 15.078 4.60205 16.9203C4.60205 18.9249 6.23233 20.5558 8.23618 20.5558C18.3773 20.5452 17.8224 20.5817 17.999 20.5269C20.2518 20.2727 22 18.3614 22 16.0425C22 13.3944 19.7381 11.3383 17.1405 11.5418Z" fill="#F1F1F1"/>
</g>
<path d="M65.9992 10.7115C65.9666 10.6572 65.9206 10.6123 65.8655 10.5811C65.8104 10.5498 65.7482 10.5334 65.6849 10.5333H64.3151C64.2518 10.5334 64.1896 10.5497 64.1345 10.5809C64.0795 10.6121 64.0334 10.6569 64.0008 10.7112L63.3408 11.8112C63.3066 11.8682 63.2886 11.9334 63.2886 11.9998C63.2886 12.0663 63.3066 12.1315 63.3408 12.1885L64.0008 13.2885C64.0334 13.3428 64.0794 13.3877 64.1345 13.419C64.1895 13.4502 64.2518 13.4666 64.3151 13.4667H65.6849C65.7482 13.4667 65.8104 13.4503 65.8655 13.4191C65.9205 13.388 65.9666 13.3431 65.9992 13.2888L66.6592 12.1888C66.6934 12.1319 66.7114 12.0666 66.7114 12.0002C66.7114 11.9337 66.6934 11.8685 66.6592 11.8115L65.9992 10.7115Z" fill="#2194FF"/>
<path d="M73.9038 16.2937L72.4371 15.4478L73.6167 15.0144C73.7936 14.9537 73.942 14.8301 74.0338 14.6671C74.1255 14.5041 74.1541 14.3131 74.1143 14.1303C74.0889 14.0309 74.0429 13.9379 73.9794 13.8573C73.9158 13.7767 73.836 13.7104 73.7452 13.6626C73.6543 13.6148 73.5545 13.5866 73.4521 13.5798C73.3497 13.573 73.247 13.5878 73.1507 13.6232L70.7849 14.4933L68.9274 13.4205L69.5467 12.3729C69.6134 12.26 69.6486 12.1312 69.6486 12C69.6486 11.8688 69.6134 11.7401 69.5467 11.6271L68.9278 10.5795L70.7849 9.50667L73.1507 10.3768C73.2516 10.414 73.3596 10.4285 73.4669 10.4194C73.5741 10.4102 73.678 10.3775 73.7712 10.3236C73.8644 10.2698 73.9446 10.196 74.0061 10.1077C74.0676 10.0194 74.1089 9.91857 74.1271 9.81247C74.1521 9.63793 74.1155 9.46012 74.0235 9.30967C73.9316 9.15922 73.79 9.04554 73.6233 8.98821L72.4382 8.55334L73.9049 7.70597C74.0684 7.61628 74.1933 7.46955 74.2556 7.29375C74.318 7.11794 74.3135 6.92534 74.243 6.75264C74.2011 6.65881 74.14 6.57482 74.0636 6.50612C73.9872 6.43742 73.8972 6.38554 73.7995 6.35384C73.7018 6.32213 73.5985 6.31132 73.4963 6.3221C73.3941 6.33288 73.2953 6.36501 73.2064 6.41641L71.7031 7.28357L71.9168 6.04717C71.9515 5.87155 71.9234 5.68931 71.8374 5.53229C71.7515 5.37526 71.6131 5.25343 71.4464 5.18807C71.3458 5.15246 71.2386 5.13925 71.1323 5.14936C71.026 5.15947 70.9233 5.19266 70.8311 5.24661C70.739 5.30055 70.6598 5.37396 70.599 5.4617C70.5382 5.54943 70.4973 5.64938 70.4791 5.75457L70.0498 8.23837L68.1798 9.31821L67.5949 8.32821C67.5304 8.21843 67.4383 8.12737 67.3279 8.06398C67.2174 8.00058 67.0923 7.96705 66.965 7.96667H65.7334V5.74357L67.64 4.15517C67.7796 4.04379 67.8756 3.88686 67.9112 3.71185C67.9468 3.53683 67.9197 3.35487 67.8347 3.19781C67.7811 3.10554 67.708 3.0261 67.6205 2.96501C67.533 2.90393 67.4332 2.86268 67.3281 2.84414C67.223 2.8256 67.1151 2.83022 67.012 2.85767C66.9089 2.88513 66.813 2.93476 66.7311 3.00311L65.7334 3.83434V2.13924C65.7373 1.96073 65.6784 1.78651 65.5668 1.64708C65.4553 1.50765 65.2982 1.4119 65.1232 1.37657C65.018 1.35863 64.9101 1.3639 64.8071 1.39199C64.704 1.42009 64.6084 1.47034 64.5268 1.53924C64.4453 1.60814 64.3797 1.69401 64.3348 1.79087C64.2899 1.88773 64.2666 1.99323 64.2667 2.10001V3.83434L63.2994 3.02767C63.1648 2.91051 62.9932 2.84444 62.8148 2.84102C62.6363 2.8376 62.4624 2.89706 62.3234 3.00897C62.2422 3.07837 62.1772 3.16466 62.1328 3.2618C62.0885 3.35895 62.0659 3.46461 62.0666 3.5714C62.0673 3.67818 62.0914 3.78352 62.137 3.88005C62.1827 3.97658 62.2489 4.06196 62.3311 4.13024L64.2671 5.74357V7.96667H63.0351C62.9076 7.96668 62.7823 7.99993 62.6715 8.06314C62.5608 8.12634 62.4685 8.21733 62.4037 8.32711L61.8188 9.31711L59.9488 8.23727L59.5268 5.79491C59.4989 5.6101 59.404 5.44199 59.2603 5.32249C59.1166 5.20298 58.9341 5.14041 58.7473 5.14664C58.6448 5.1536 58.5449 5.18202 58.4541 5.23004C58.3633 5.27806 58.2836 5.34462 58.2202 5.4254C58.1568 5.50619 58.111 5.59939 58.0859 5.69899C58.0608 5.79858 58.0569 5.90234 58.0744 6.00354L58.2944 7.28247L56.8278 6.43474C56.6752 6.34197 56.4949 6.30583 56.3184 6.33264C56.1419 6.35946 55.9804 6.44752 55.8623 6.58141C55.7942 6.66357 55.7448 6.75962 55.7176 6.86285C55.6905 6.96608 55.6862 7.07399 55.705 7.17905C55.7239 7.28412 55.7654 7.3838 55.8268 7.47114C55.8882 7.55847 55.9679 7.63136 56.0603 7.68471L57.5637 8.55187L56.3779 8.98784C56.211 9.04517 56.0693 9.15887 55.9772 9.30938C55.8851 9.4599 55.8484 9.6378 55.8733 9.81247C55.8915 9.91857 55.9328 10.0194 55.9943 10.1077C56.0558 10.196 56.136 10.2698 56.2292 10.3236C56.3224 10.3775 56.4263 10.4102 56.5336 10.4194C56.6408 10.4285 56.7488 10.414 56.8498 10.3768L59.2151 9.50667L61.0727 10.5795L60.4534 11.6271C60.3867 11.7401 60.3515 11.8688 60.3515 12C60.3515 12.1312 60.3867 12.26 60.4534 12.3729L61.0723 13.4205L59.2151 14.4933L56.8498 13.6232C56.7534 13.5878 56.6507 13.5729 56.5483 13.5796C56.4459 13.5864 56.346 13.6145 56.2551 13.6623C56.1642 13.71 56.0844 13.7764 56.0208 13.8569C55.9572 13.9375 55.9112 14.0305 55.8858 14.13C55.8459 14.3128 55.8745 14.5038 55.9663 14.6669C56.058 14.8299 56.2064 14.9536 56.3834 15.0144L57.5618 15.4467L56.0985 16.29C55.9324 16.3809 55.806 16.5302 55.7439 16.709C55.6817 16.8878 55.6881 17.0833 55.7619 17.2576C55.8049 17.3497 55.8666 17.4319 55.943 17.4989C56.0195 17.5659 56.109 17.6163 56.2059 17.6468C56.3029 17.6774 56.4051 17.6874 56.5062 17.6764C56.6072 17.6653 56.7049 17.6333 56.7929 17.5825L58.2963 16.7153L58.0818 17.9569C58.0597 18.0643 58.0615 18.1752 58.0871 18.2818C58.1126 18.3885 58.1612 18.4882 58.2294 18.574C58.2977 18.6598 58.3839 18.7296 58.4821 18.7784C58.5802 18.8273 58.6879 18.854 58.7975 18.8567C58.9702 18.8564 59.1372 18.7952 59.2693 18.6839C59.4013 18.5725 59.4897 18.4182 59.5191 18.248L59.9485 15.7642L61.8185 14.6844L62.4033 15.6744C62.4683 15.7839 62.5608 15.8747 62.6716 15.9376C62.7824 16.0006 62.9076 16.0335 63.0351 16.0333H64.2667V18.2564L62.36 19.8467C62.2205 19.9579 62.1246 20.1148 62.0891 20.2897C62.0536 20.4646 62.0809 20.6465 62.1661 20.8033C62.2197 20.8956 62.2928 20.975 62.3803 21.0361C62.4678 21.0972 62.5676 21.1384 62.6727 21.157C62.7778 21.1755 62.8856 21.1709 62.9888 21.1434C63.0919 21.116 63.1878 21.0664 63.2697 20.998L64.2667 20.1657V21.8608C64.2627 22.0393 64.3217 22.2135 64.4332 22.3529C64.5448 22.4924 64.7018 22.5881 64.8768 22.6234C64.9821 22.6414 65.09 22.6361 65.193 22.608C65.296 22.5799 65.3916 22.5297 65.4732 22.4608C65.5548 22.3919 65.6203 22.306 65.6653 22.2091C65.7102 22.1123 65.7334 22.0068 65.7334 21.9V20.1657L66.7307 20.9969C66.8144 21.0667 66.9126 21.117 67.0181 21.1442C67.1237 21.1713 67.234 21.1745 67.3409 21.1537C67.4479 21.1328 67.5489 21.0884 67.6365 21.0236C67.7242 20.9588 67.7962 20.8753 67.8476 20.7791C67.9255 20.6241 67.9477 20.4471 67.9106 20.2777C67.8735 20.1082 67.7793 19.9567 67.6437 19.8485L65.7334 18.2564V16.0333H66.965C67.0925 16.0333 67.2178 16.0001 67.3285 15.9369C67.4392 15.8737 67.5316 15.7827 67.5964 15.6729L68.1812 14.6829L70.0512 15.7627L70.4806 18.2465C70.5099 18.4167 70.5984 18.5711 70.7304 18.6824C70.8624 18.7938 71.0295 18.855 71.2022 18.8552C71.312 18.8518 71.4198 18.8245 71.518 18.7751C71.6162 18.7257 71.7024 18.6554 71.7705 18.5692C71.8387 18.483 71.8872 18.383 71.9127 18.276C71.9381 18.1691 71.9399 18.058 71.9179 17.9503L71.7045 16.7175L73.2079 17.5847C73.2959 17.6356 73.3935 17.6676 73.4946 17.6788C73.5957 17.6899 73.698 17.6799 73.795 17.6494C73.8919 17.6188 73.9815 17.5685 74.058 17.5015C74.1345 17.4345 74.1962 17.3523 74.2393 17.2602C74.3131 17.0862 74.3196 16.8909 74.2576 16.7123C74.1957 16.5338 74.0695 16.3846 73.9038 16.2937ZM67.288 12.5658L66.628 13.6658C66.53 13.8283 66.3917 13.9629 66.2265 14.0565C66.0613 14.1501 65.8748 14.1995 65.685 14.2H64.3151C64.1252 14.1995 63.9387 14.1501 63.7735 14.0565C63.6084 13.9629 63.4701 13.8283 63.372 13.6658L62.712 12.5658C62.6091 12.395 62.5547 12.1994 62.5547 12C62.5547 11.8006 62.6091 11.605 62.712 11.4342L63.372 10.3342C63.4701 10.1717 63.6084 10.0371 63.7735 9.94352C63.9387 9.84995 64.1252 9.80052 64.3151 9.80001H65.685C65.8748 9.80052 66.0613 9.84995 66.2265 9.94352C66.3917 10.0371 66.53 10.1717 66.628 10.3342L67.288 11.4342C67.391 11.605 67.4453 11.8006 67.4453 12C67.4453 12.1994 67.391 12.395 67.288 12.5658Z" fill="#2194FF"/>
<g clip-path="url(#clip1_24204_6)">
<path d="M30.9617 11.877C31.0272 11.8664 31.0934 11.8615 31.1597 11.8623L42.4474 11.8623L42.2013 11.7478C41.9607 11.634 41.7418 11.479 41.5544 11.2899L38.3891 8.12456C37.9722 7.72661 37.9022 7.08642 38.2231 6.60772C38.5966 6.0976 39.3129 5.98685 39.8231 6.36037C39.8643 6.39056 39.9035 6.42348 39.9403 6.45889L45.6642 12.1829C46.1116 12.6297 46.112 13.3545 45.6651 13.8018C45.6649 13.8021 45.6645 13.8024 45.6642 13.8027L39.9403 19.5267C39.4926 19.9731 38.7678 19.9721 38.3213 19.5244C38.2862 19.4892 38.2534 19.4517 38.2231 19.4122C37.9022 18.9335 37.9722 18.2933 38.3891 17.8954L41.5487 14.7243C41.7167 14.5561 41.9098 14.4152 42.1211 14.3064L42.4646 14.1519L31.2227 14.1519C30.6379 14.1736 30.1248 13.7651 30.0149 13.1903C29.9137 12.5662 30.3376 11.9782 30.9617 11.877Z" fill="#2194FF"/>
</g>
<defs>
<clipPath id="clip0_24204_6">
<rect width="22" height="22.0079" fill="white" transform="translate(0 0.0535583)"/>
</clipPath>
<clipPath id="clip1_24204_6">
<rect width="16" height="16" fill="white" transform="matrix(-1 8.74228e-08 8.74228e-08 1 46 5)"/>
</clipPath>
</defs>
</svg>
