<svg width="77" height="25" viewBox="0 0 77 25" fill="none" xmlns="http://www.w3.org/2000/svg">
<g clip-path="url(#clip0_24204_5)">
<path d="M64.5 6.23837C61.0473 6.23837 58.2384 9.04783 58.2384 12.5006C58.2384 15.9533 61.0473 18.7627 64.5 18.7627C67.9522 18.7627 70.7616 15.9538 70.7616 12.5006C70.7616 9.04727 67.9522 6.23837 64.5 6.23837Z" fill="#2194FF"/>
<path d="M64.5 4.3977C63.8252 4.3977 63.2782 3.85075 63.2782 3.17648V1.22177C63.2782 0.546944 63.8252 0 64.5 0C65.1748 0 65.7218 0.546944 65.7218 1.22177V3.17648C65.7218 3.85075 65.1743 4.3977 64.5 4.3977Z" fill="#2194FF"/>
<path d="M64.5 20.6017C63.8252 20.6017 63.2782 21.1487 63.2782 21.8235V23.7777C63.2782 24.4531 63.8252 25 64.5 25C65.1748 25 65.7218 24.4531 65.7218 23.7777V21.8235C65.7218 21.1487 65.1743 20.6017 64.5 20.6017Z" fill="#2194FF"/>
<path d="M70.2285 6.77092C69.7519 6.29373 69.7519 5.52037 70.2285 5.04318L71.6108 3.66087C72.0875 3.18423 72.8614 3.18423 73.3386 3.66087C73.8158 4.13806 73.8158 4.91198 73.3386 5.38862L71.9563 6.77092C71.4796 7.24811 70.7063 7.24811 70.2285 6.77092Z" fill="#2194FF"/>
<path d="M58.7709 18.2296C58.2937 17.7519 57.5204 17.7519 57.0432 18.2296L55.6609 19.6114C55.1842 20.088 55.1837 20.8625 55.6609 21.3391C56.1381 21.8158 56.912 21.8158 57.3886 21.3391L58.7709 19.9563C59.2481 19.4796 59.2481 18.7057 58.7709 18.2296Z" fill="#2194FF"/>
<path d="M72.6017 12.5C72.6017 11.8252 73.1487 11.2782 73.8235 11.2782H75.7782C76.4531 11.2782 77 11.8252 77 12.5C77 13.1748 76.4531 13.7212 75.7782 13.7212H73.8235C73.1487 13.7212 72.6017 13.1748 72.6017 12.5Z" fill="#2194FF"/>
<path d="M56.3977 12.5C56.3977 11.8252 55.8508 11.2782 55.1759 11.2782H53.2218C52.5469 11.2782 52 11.8252 52 12.5C52 13.1748 52.5469 13.7212 53.2218 13.7212H55.1765C55.8508 13.7212 56.3977 13.1748 56.3977 12.5Z" fill="#2194FF"/>
<path d="M70.2285 18.2296C70.7057 17.753 71.4796 17.753 71.9563 18.2296L73.3386 19.6119C73.8158 20.088 73.8158 20.8625 73.3386 21.3391C72.8614 21.8158 72.088 21.8158 71.6108 21.3391L70.2285 19.9568C69.7513 19.4796 69.7513 18.7063 70.2285 18.2296Z" fill="#2194FF"/>
<path d="M58.7709 6.77092C59.2481 6.29373 59.2481 5.52037 58.7709 5.04318L57.3886 3.66142C56.9114 3.18423 56.1381 3.18423 55.6609 3.66142C55.1837 4.13806 55.1837 4.91198 55.6609 5.38861L57.0432 6.77092C57.5204 7.24867 58.2937 7.24867 58.7709 6.77092Z" fill="#2194FF"/>
</g>
<g opacity="0.4" clip-path="url(#clip1_24204_5)">
<path d="M19.5133 14.4491C19.3087 14.398 19.1041 14.4491 18.9251 14.5771C18.2602 15.1399 17.4929 15.6004 16.649 15.9074C15.8562 16.2144 14.9866 16.3679 14.066 16.3679C11.9944 16.3679 10.1019 15.5237 8.74647 14.1677C7.39102 12.8118 6.54706 10.9186 6.54706 8.84633C6.54706 7.97649 6.70051 7.13223 6.95625 6.36472C7.23757 5.54604 7.64677 4.80412 8.18383 4.16453C8.414 3.88311 8.36285 3.47377 8.08153 3.24352C7.90251 3.1156 7.69791 3.06443 7.49332 3.1156C5.31949 3.70402 3.42698 5.00879 2.07153 6.74847C0.767234 8.46257 0 10.586 0 12.8885C0 15.6772 1.12528 18.2099 2.96664 20.0519C4.808 21.894 7.3143 23.0196 10.1275 23.0196C12.4803 23.0196 14.6542 22.201 16.3932 20.845C18.1579 19.4635 19.4366 17.4936 19.9737 15.2422C20.076 14.8841 19.8714 14.5259 19.5133 14.4491Z" fill="#F1F1F1"/>
</g>
<g clip-path="url(#clip2_24204_5)">
<path d="M28.9617 10.877C29.0272 10.8664 29.0934 10.8614 29.1597 10.8623L40.4474 10.8623L40.2013 10.7478C39.9607 10.634 39.7418 10.479 39.5545 10.2899L36.3891 7.12456C35.9722 6.72661 35.9022 6.08642 36.2231 5.60771C36.5967 5.0976 37.313 4.98684 37.8231 5.36037C37.8643 5.39056 37.9035 5.42348 37.9403 5.45889L43.6643 11.1829C44.1116 11.6297 44.112 12.3545 43.6652 12.8018C43.6649 12.8021 43.6646 12.8024 43.6643 12.8027L37.9403 18.5267C37.4926 18.9731 36.7678 18.9721 36.3213 18.5244C36.2862 18.4892 36.2534 18.4517 36.2231 18.4122C35.9022 17.9335 35.9722 17.2933 36.3891 16.8954L39.5487 13.7243C39.7167 13.5561 39.9098 13.4152 40.1211 13.3064L40.4646 13.1519L29.2227 13.1519C28.6379 13.1736 28.1248 12.7651 28.015 12.1903C27.9138 11.5662 28.3376 10.9782 28.9617 10.877Z" fill="#2194FF"/>
</g>
<defs>
<clipPath id="clip0_24204_5">
<rect width="25" height="25" fill="white" transform="translate(52)"/>
</clipPath>
<clipPath id="clip1_24204_5">
<rect width="20" height="20.0071" fill="white" transform="translate(0 3.05428)"/>
</clipPath>
<clipPath id="clip2_24204_5">
<rect width="16" height="16" fill="white" transform="matrix(-1 -8.74228e-08 -8.74228e-08 1 44 4)"/>
</clipPath>
</defs>
</svg>
